<mxfile host="Electron" agent="Mozilla/5.0 (Windows NT 10.0; Win64; x64) AppleWebKit/537.36 (KHTML, like Gecko) draw.io/26.0.9 Chrome/128.0.6613.186 Electron/32.2.5 Safari/537.36" version="26.0.9">
  <diagram name="Page-1" id="bFZQcwwtqYImwqhn5G8x">
    <mxGraphModel dx="918" dy="593" grid="1" gridSize="10" guides="1" tooltips="1" connect="1" arrows="1" fold="1" page="1" pageScale="1" pageWidth="570" pageHeight="940" math="0" shadow="0">
      <root>
        <mxCell id="0" />
        <mxCell id="1" parent="0" />
        <mxCell id="vJmMyQdDrBQl8oO5ruZa-2" value="" style="shape=table;startSize=0;container=1;collapsible=0;childLayout=tableLayout;fillColor=#dae8fc;strokeWidth=2;strokeColor=#6c8ebf;" vertex="1" parent="1">
          <mxGeometry x="30" y="150" width="180" height="90" as="geometry" />
        </mxCell>
        <mxCell id="vJmMyQdDrBQl8oO5ruZa-3" value="" style="shape=tableRow;horizontal=0;startSize=0;swimlaneHead=0;swimlaneBody=0;strokeColor=#6c8ebf;top=0;left=0;bottom=0;right=0;collapsible=0;dropTarget=0;fillColor=none;points=[[0,0.5],[1,0.5]];portConstraint=eastwest;strokeWidth=2;" vertex="1" parent="vJmMyQdDrBQl8oO5ruZa-2">
          <mxGeometry width="180" height="18" as="geometry" />
        </mxCell>
        <mxCell id="vJmMyQdDrBQl8oO5ruZa-4" value="M" style="shape=partialRectangle;html=1;whiteSpace=wrap;connectable=0;strokeColor=#6c8ebf;overflow=hidden;fillColor=none;top=0;left=0;bottom=0;right=0;pointerEvents=1;shadow=0;strokeWidth=2;" vertex="1" parent="vJmMyQdDrBQl8oO5ruZa-3">
          <mxGeometry width="36" height="18" as="geometry">
            <mxRectangle width="36" height="18" as="alternateBounds" />
          </mxGeometry>
        </mxCell>
        <mxCell id="vJmMyQdDrBQl8oO5ruZa-5" value="O" style="shape=partialRectangle;html=1;whiteSpace=wrap;connectable=0;strokeColor=#6c8ebf;overflow=hidden;fillColor=none;top=0;left=0;bottom=0;right=0;pointerEvents=1;strokeWidth=2;" vertex="1" parent="vJmMyQdDrBQl8oO5ruZa-3">
          <mxGeometry x="36" width="36" height="18" as="geometry">
            <mxRectangle width="36" height="18" as="alternateBounds" />
          </mxGeometry>
        </mxCell>
        <mxCell id="vJmMyQdDrBQl8oO5ruZa-6" value="N" style="shape=partialRectangle;html=1;whiteSpace=wrap;connectable=0;strokeColor=#6F0000;overflow=hidden;fillColor=#a20025;top=0;left=0;bottom=0;right=0;pointerEvents=1;strokeWidth=2;fontColor=#ffffff;" vertex="1" parent="vJmMyQdDrBQl8oO5ruZa-3">
          <mxGeometry x="72" width="36" height="18" as="geometry">
            <mxRectangle width="36" height="18" as="alternateBounds" />
          </mxGeometry>
        </mxCell>
        <mxCell id="vJmMyQdDrBQl8oO5ruZa-7" value="A" style="shape=partialRectangle;html=1;whiteSpace=wrap;connectable=0;strokeColor=#006EAF;overflow=hidden;fillColor=#1ba1e2;top=0;left=0;bottom=0;right=0;pointerEvents=1;strokeWidth=2;fontColor=#ffffff;" vertex="1" parent="vJmMyQdDrBQl8oO5ruZa-3">
          <mxGeometry x="108" width="36" height="18" as="geometry">
            <mxRectangle width="36" height="18" as="alternateBounds" />
          </mxGeometry>
        </mxCell>
        <mxCell id="vJmMyQdDrBQl8oO5ruZa-8" value="R" style="shape=partialRectangle;html=1;whiteSpace=wrap;connectable=0;strokeColor=#6c8ebf;overflow=hidden;fillColor=none;top=0;left=0;bottom=0;right=0;pointerEvents=1;strokeWidth=2;" vertex="1" parent="vJmMyQdDrBQl8oO5ruZa-3">
          <mxGeometry x="144" width="36" height="18" as="geometry">
            <mxRectangle width="36" height="18" as="alternateBounds" />
          </mxGeometry>
        </mxCell>
        <mxCell id="vJmMyQdDrBQl8oO5ruZa-9" value="" style="shape=tableRow;horizontal=0;startSize=0;swimlaneHead=0;swimlaneBody=0;strokeColor=#6c8ebf;top=0;left=0;bottom=0;right=0;collapsible=0;dropTarget=0;fillColor=none;points=[[0,0.5],[1,0.5]];portConstraint=eastwest;strokeWidth=2;" vertex="1" parent="vJmMyQdDrBQl8oO5ruZa-2">
          <mxGeometry y="18" width="180" height="18" as="geometry" />
        </mxCell>
        <mxCell id="vJmMyQdDrBQl8oO5ruZa-10" value="C" style="shape=partialRectangle;html=1;whiteSpace=wrap;connectable=0;strokeColor=#6c8ebf;overflow=hidden;fillColor=none;top=0;left=0;bottom=0;right=0;pointerEvents=1;strokeWidth=2;" vertex="1" parent="vJmMyQdDrBQl8oO5ruZa-9">
          <mxGeometry width="36" height="18" as="geometry">
            <mxRectangle width="36" height="18" as="alternateBounds" />
          </mxGeometry>
        </mxCell>
        <mxCell id="vJmMyQdDrBQl8oO5ruZa-11" value="H" style="shape=partialRectangle;html=1;whiteSpace=wrap;connectable=0;strokeColor=#6c8ebf;overflow=hidden;fillColor=none;top=0;left=0;bottom=0;right=0;pointerEvents=1;strokeWidth=2;" vertex="1" parent="vJmMyQdDrBQl8oO5ruZa-9">
          <mxGeometry x="36" width="36" height="18" as="geometry">
            <mxRectangle width="36" height="18" as="alternateBounds" />
          </mxGeometry>
        </mxCell>
        <mxCell id="vJmMyQdDrBQl8oO5ruZa-12" value="Y" style="shape=partialRectangle;html=1;whiteSpace=wrap;connectable=0;strokeColor=#6c8ebf;overflow=hidden;fillColor=none;top=0;left=0;bottom=0;right=0;pointerEvents=1;strokeWidth=2;" vertex="1" parent="vJmMyQdDrBQl8oO5ruZa-9">
          <mxGeometry x="72" width="36" height="18" as="geometry">
            <mxRectangle width="36" height="18" as="alternateBounds" />
          </mxGeometry>
        </mxCell>
        <mxCell id="vJmMyQdDrBQl8oO5ruZa-13" value="B" style="shape=partialRectangle;html=1;whiteSpace=wrap;connectable=0;strokeColor=#6c8ebf;overflow=hidden;fillColor=none;top=0;left=0;bottom=0;right=0;pointerEvents=1;strokeWidth=2;" vertex="1" parent="vJmMyQdDrBQl8oO5ruZa-9">
          <mxGeometry x="108" width="36" height="18" as="geometry">
            <mxRectangle width="36" height="18" as="alternateBounds" />
          </mxGeometry>
        </mxCell>
        <mxCell id="vJmMyQdDrBQl8oO5ruZa-14" value="D" style="shape=partialRectangle;html=1;whiteSpace=wrap;connectable=0;strokeColor=#6c8ebf;overflow=hidden;fillColor=none;top=0;left=0;bottom=0;right=0;pointerEvents=1;strokeWidth=2;" vertex="1" parent="vJmMyQdDrBQl8oO5ruZa-9">
          <mxGeometry x="144" width="36" height="18" as="geometry">
            <mxRectangle width="36" height="18" as="alternateBounds" />
          </mxGeometry>
        </mxCell>
        <mxCell id="vJmMyQdDrBQl8oO5ruZa-15" value="" style="shape=tableRow;horizontal=0;startSize=0;swimlaneHead=0;swimlaneBody=0;strokeColor=#6c8ebf;top=0;left=0;bottom=0;right=0;collapsible=0;dropTarget=0;fillColor=none;points=[[0,0.5],[1,0.5]];portConstraint=eastwest;strokeWidth=2;" vertex="1" parent="vJmMyQdDrBQl8oO5ruZa-2">
          <mxGeometry y="36" width="180" height="18" as="geometry" />
        </mxCell>
        <mxCell id="vJmMyQdDrBQl8oO5ruZa-16" value="E" style="shape=partialRectangle;html=1;whiteSpace=wrap;connectable=0;strokeColor=#6c8ebf;overflow=hidden;fillColor=none;top=0;left=0;bottom=0;right=0;pointerEvents=1;strokeWidth=2;" vertex="1" parent="vJmMyQdDrBQl8oO5ruZa-15">
          <mxGeometry width="36" height="18" as="geometry">
            <mxRectangle width="36" height="18" as="alternateBounds" />
          </mxGeometry>
        </mxCell>
        <mxCell id="vJmMyQdDrBQl8oO5ruZa-17" value="F" style="shape=partialRectangle;html=1;whiteSpace=wrap;connectable=0;strokeColor=#6c8ebf;overflow=hidden;fillColor=none;top=0;left=0;bottom=0;right=0;pointerEvents=1;strokeWidth=2;" vertex="1" parent="vJmMyQdDrBQl8oO5ruZa-15">
          <mxGeometry x="36" width="36" height="18" as="geometry">
            <mxRectangle width="36" height="18" as="alternateBounds" />
          </mxGeometry>
        </mxCell>
        <mxCell id="vJmMyQdDrBQl8oO5ruZa-18" value="G" style="shape=partialRectangle;html=1;whiteSpace=wrap;connectable=0;strokeColor=#006EAF;overflow=hidden;fillColor=#1ba1e2;top=0;left=0;bottom=0;right=0;pointerEvents=1;strokeWidth=2;fontColor=#ffffff;" vertex="1" parent="vJmMyQdDrBQl8oO5ruZa-15">
          <mxGeometry x="72" width="36" height="18" as="geometry">
            <mxRectangle width="36" height="18" as="alternateBounds" />
          </mxGeometry>
        </mxCell>
        <mxCell id="vJmMyQdDrBQl8oO5ruZa-19" value="I" style="shape=partialRectangle;html=1;whiteSpace=wrap;connectable=0;strokeColor=#6F0000;overflow=hidden;fillColor=#a20025;top=0;left=0;bottom=0;right=0;pointerEvents=1;strokeWidth=2;fontColor=#ffffff;" vertex="1" parent="vJmMyQdDrBQl8oO5ruZa-15">
          <mxGeometry x="108" width="36" height="18" as="geometry">
            <mxRectangle width="36" height="18" as="alternateBounds" />
          </mxGeometry>
        </mxCell>
        <mxCell id="vJmMyQdDrBQl8oO5ruZa-20" value="K" style="shape=partialRectangle;html=1;whiteSpace=wrap;connectable=0;strokeColor=#6c8ebf;overflow=hidden;fillColor=none;top=0;left=0;bottom=0;right=0;pointerEvents=1;strokeWidth=2;" vertex="1" parent="vJmMyQdDrBQl8oO5ruZa-15">
          <mxGeometry x="144" width="36" height="18" as="geometry">
            <mxRectangle width="36" height="18" as="alternateBounds" />
          </mxGeometry>
        </mxCell>
        <mxCell id="vJmMyQdDrBQl8oO5ruZa-21" value="" style="shape=tableRow;horizontal=0;startSize=0;swimlaneHead=0;swimlaneBody=0;strokeColor=#6c8ebf;top=0;left=0;bottom=0;right=0;collapsible=0;dropTarget=0;fillColor=none;points=[[0,0.5],[1,0.5]];portConstraint=eastwest;strokeWidth=2;" vertex="1" parent="vJmMyQdDrBQl8oO5ruZa-2">
          <mxGeometry y="54" width="180" height="18" as="geometry" />
        </mxCell>
        <mxCell id="vJmMyQdDrBQl8oO5ruZa-22" value="L" style="shape=partialRectangle;html=1;whiteSpace=wrap;connectable=0;strokeColor=#6c8ebf;overflow=hidden;fillColor=none;top=0;left=0;bottom=0;right=0;pointerEvents=1;strokeWidth=2;" vertex="1" parent="vJmMyQdDrBQl8oO5ruZa-21">
          <mxGeometry width="36" height="18" as="geometry">
            <mxRectangle width="36" height="18" as="alternateBounds" />
          </mxGeometry>
        </mxCell>
        <mxCell id="vJmMyQdDrBQl8oO5ruZa-23" value="P" style="shape=partialRectangle;html=1;whiteSpace=wrap;connectable=0;strokeColor=#6c8ebf;overflow=hidden;fillColor=none;top=0;left=0;bottom=0;right=0;pointerEvents=1;strokeWidth=2;" vertex="1" parent="vJmMyQdDrBQl8oO5ruZa-21">
          <mxGeometry x="36" width="36" height="18" as="geometry">
            <mxRectangle width="36" height="18" as="alternateBounds" />
          </mxGeometry>
        </mxCell>
        <mxCell id="vJmMyQdDrBQl8oO5ruZa-24" value="Q" style="shape=partialRectangle;html=1;whiteSpace=wrap;connectable=0;strokeColor=#6c8ebf;overflow=hidden;fillColor=none;top=0;left=0;bottom=0;right=0;pointerEvents=1;strokeWidth=2;" vertex="1" parent="vJmMyQdDrBQl8oO5ruZa-21">
          <mxGeometry x="72" width="36" height="18" as="geometry">
            <mxRectangle width="36" height="18" as="alternateBounds" />
          </mxGeometry>
        </mxCell>
        <mxCell id="vJmMyQdDrBQl8oO5ruZa-25" value="S" style="shape=partialRectangle;html=1;whiteSpace=wrap;connectable=0;strokeColor=#6c8ebf;overflow=hidden;fillColor=none;top=0;left=0;bottom=0;right=0;pointerEvents=1;strokeWidth=2;" vertex="1" parent="vJmMyQdDrBQl8oO5ruZa-21">
          <mxGeometry x="108" width="36" height="18" as="geometry">
            <mxRectangle width="36" height="18" as="alternateBounds" />
          </mxGeometry>
        </mxCell>
        <mxCell id="vJmMyQdDrBQl8oO5ruZa-26" value="T" style="shape=partialRectangle;html=1;whiteSpace=wrap;connectable=0;strokeColor=#6c8ebf;overflow=hidden;fillColor=none;top=0;left=0;bottom=0;right=0;pointerEvents=1;strokeWidth=2;" vertex="1" parent="vJmMyQdDrBQl8oO5ruZa-21">
          <mxGeometry x="144" width="36" height="18" as="geometry">
            <mxRectangle width="36" height="18" as="alternateBounds" />
          </mxGeometry>
        </mxCell>
        <mxCell id="vJmMyQdDrBQl8oO5ruZa-27" value="" style="shape=tableRow;horizontal=0;startSize=0;swimlaneHead=0;swimlaneBody=0;strokeColor=#6c8ebf;top=0;left=0;bottom=0;right=0;collapsible=0;dropTarget=0;fillColor=none;points=[[0,0.5],[1,0.5]];portConstraint=eastwest;strokeWidth=2;" vertex="1" parent="vJmMyQdDrBQl8oO5ruZa-2">
          <mxGeometry y="72" width="180" height="18" as="geometry" />
        </mxCell>
        <mxCell id="vJmMyQdDrBQl8oO5ruZa-28" value="U" style="shape=partialRectangle;html=1;whiteSpace=wrap;connectable=0;strokeColor=#6c8ebf;overflow=hidden;fillColor=none;top=0;left=0;bottom=0;right=0;pointerEvents=1;strokeWidth=2;" vertex="1" parent="vJmMyQdDrBQl8oO5ruZa-27">
          <mxGeometry width="36" height="18" as="geometry">
            <mxRectangle width="36" height="18" as="alternateBounds" />
          </mxGeometry>
        </mxCell>
        <mxCell id="vJmMyQdDrBQl8oO5ruZa-29" value="V" style="shape=partialRectangle;html=1;whiteSpace=wrap;connectable=0;strokeColor=#6c8ebf;overflow=hidden;fillColor=none;top=0;left=0;bottom=0;right=0;pointerEvents=1;strokeWidth=2;" vertex="1" parent="vJmMyQdDrBQl8oO5ruZa-27">
          <mxGeometry x="36" width="36" height="18" as="geometry">
            <mxRectangle width="36" height="18" as="alternateBounds" />
          </mxGeometry>
        </mxCell>
        <mxCell id="vJmMyQdDrBQl8oO5ruZa-30" value="W" style="shape=partialRectangle;html=1;whiteSpace=wrap;connectable=0;strokeColor=#6c8ebf;overflow=hidden;fillColor=none;top=0;left=0;bottom=0;right=0;pointerEvents=1;strokeWidth=2;" vertex="1" parent="vJmMyQdDrBQl8oO5ruZa-27">
          <mxGeometry x="72" width="36" height="18" as="geometry">
            <mxRectangle width="36" height="18" as="alternateBounds" />
          </mxGeometry>
        </mxCell>
        <mxCell id="vJmMyQdDrBQl8oO5ruZa-31" value="X" style="shape=partialRectangle;html=1;whiteSpace=wrap;connectable=0;strokeColor=#6c8ebf;overflow=hidden;fillColor=none;top=0;left=0;bottom=0;right=0;pointerEvents=1;strokeWidth=2;" vertex="1" parent="vJmMyQdDrBQl8oO5ruZa-27">
          <mxGeometry x="108" width="36" height="18" as="geometry">
            <mxRectangle width="36" height="18" as="alternateBounds" />
          </mxGeometry>
        </mxCell>
        <mxCell id="vJmMyQdDrBQl8oO5ruZa-32" value="Z" style="shape=partialRectangle;html=1;whiteSpace=wrap;connectable=0;strokeColor=#6c8ebf;overflow=hidden;fillColor=none;top=0;left=0;bottom=0;right=0;pointerEvents=1;strokeWidth=2;" vertex="1" parent="vJmMyQdDrBQl8oO5ruZa-27">
          <mxGeometry x="144" width="36" height="18" as="geometry">
            <mxRectangle width="36" height="18" as="alternateBounds" />
          </mxGeometry>
        </mxCell>
        <mxCell id="vJmMyQdDrBQl8oO5ruZa-33" value="" style="shape=table;startSize=0;container=1;collapsible=0;childLayout=tableLayout;fillColor=#dae8fc;strokeWidth=2;strokeColor=#6c8ebf;" vertex="1" parent="1">
          <mxGeometry x="240" y="150" width="180" height="90" as="geometry" />
        </mxCell>
        <mxCell id="vJmMyQdDrBQl8oO5ruZa-34" value="" style="shape=tableRow;horizontal=0;startSize=0;swimlaneHead=0;swimlaneBody=0;strokeColor=#6c8ebf;top=0;left=0;bottom=0;right=0;collapsible=0;dropTarget=0;fillColor=none;points=[[0,0.5],[1,0.5]];portConstraint=eastwest;strokeWidth=2;" vertex="1" parent="vJmMyQdDrBQl8oO5ruZa-33">
          <mxGeometry width="180" height="18" as="geometry" />
        </mxCell>
        <mxCell id="vJmMyQdDrBQl8oO5ruZa-35" value="M" style="shape=partialRectangle;html=1;whiteSpace=wrap;connectable=0;strokeColor=#6c8ebf;overflow=hidden;fillColor=none;top=0;left=0;bottom=0;right=0;pointerEvents=1;shadow=0;strokeWidth=2;" vertex="1" parent="vJmMyQdDrBQl8oO5ruZa-34">
          <mxGeometry width="36" height="18" as="geometry">
            <mxRectangle width="36" height="18" as="alternateBounds" />
          </mxGeometry>
        </mxCell>
        <mxCell id="vJmMyQdDrBQl8oO5ruZa-36" value="O" style="shape=partialRectangle;html=1;whiteSpace=wrap;connectable=0;strokeColor=#6c8ebf;overflow=hidden;fillColor=none;top=0;left=0;bottom=0;right=0;pointerEvents=1;strokeWidth=2;" vertex="1" parent="vJmMyQdDrBQl8oO5ruZa-34">
          <mxGeometry x="36" width="36" height="18" as="geometry">
            <mxRectangle width="36" height="18" as="alternateBounds" />
          </mxGeometry>
        </mxCell>
        <mxCell id="vJmMyQdDrBQl8oO5ruZa-37" value="N" style="shape=partialRectangle;html=1;whiteSpace=wrap;connectable=0;strokeColor=#6c8ebf;overflow=hidden;fillColor=none;top=0;left=0;bottom=0;right=0;pointerEvents=1;strokeWidth=2;" vertex="1" parent="vJmMyQdDrBQl8oO5ruZa-34">
          <mxGeometry x="72" width="36" height="18" as="geometry">
            <mxRectangle width="36" height="18" as="alternateBounds" />
          </mxGeometry>
        </mxCell>
        <mxCell id="vJmMyQdDrBQl8oO5ruZa-38" value="A" style="shape=partialRectangle;html=1;whiteSpace=wrap;connectable=0;strokeColor=#6c8ebf;overflow=hidden;fillColor=none;top=0;left=0;bottom=0;right=0;pointerEvents=1;strokeWidth=2;" vertex="1" parent="vJmMyQdDrBQl8oO5ruZa-34">
          <mxGeometry x="108" width="36" height="18" as="geometry">
            <mxRectangle width="36" height="18" as="alternateBounds" />
          </mxGeometry>
        </mxCell>
        <mxCell id="vJmMyQdDrBQl8oO5ruZa-39" value="R" style="shape=partialRectangle;html=1;whiteSpace=wrap;connectable=0;strokeColor=#6c8ebf;overflow=hidden;fillColor=none;top=0;left=0;bottom=0;right=0;pointerEvents=1;strokeWidth=2;" vertex="1" parent="vJmMyQdDrBQl8oO5ruZa-34">
          <mxGeometry x="144" width="36" height="18" as="geometry">
            <mxRectangle width="36" height="18" as="alternateBounds" />
          </mxGeometry>
        </mxCell>
        <mxCell id="vJmMyQdDrBQl8oO5ruZa-40" value="" style="shape=tableRow;horizontal=0;startSize=0;swimlaneHead=0;swimlaneBody=0;strokeColor=#6c8ebf;top=0;left=0;bottom=0;right=0;collapsible=0;dropTarget=0;fillColor=none;points=[[0,0.5],[1,0.5]];portConstraint=eastwest;strokeWidth=2;" vertex="1" parent="vJmMyQdDrBQl8oO5ruZa-33">
          <mxGeometry y="18" width="180" height="18" as="geometry" />
        </mxCell>
        <mxCell id="vJmMyQdDrBQl8oO5ruZa-41" value="C" style="shape=partialRectangle;html=1;whiteSpace=wrap;connectable=0;strokeColor=#6c8ebf;overflow=hidden;fillColor=none;top=0;left=0;bottom=0;right=0;pointerEvents=1;strokeWidth=2;" vertex="1" parent="vJmMyQdDrBQl8oO5ruZa-40">
          <mxGeometry width="36" height="18" as="geometry">
            <mxRectangle width="36" height="18" as="alternateBounds" />
          </mxGeometry>
        </mxCell>
        <mxCell id="vJmMyQdDrBQl8oO5ruZa-42" value="H" style="shape=partialRectangle;html=1;whiteSpace=wrap;connectable=0;strokeColor=#6c8ebf;overflow=hidden;fillColor=none;top=0;left=0;bottom=0;right=0;pointerEvents=1;strokeWidth=2;" vertex="1" parent="vJmMyQdDrBQl8oO5ruZa-40">
          <mxGeometry x="36" width="36" height="18" as="geometry">
            <mxRectangle width="36" height="18" as="alternateBounds" />
          </mxGeometry>
        </mxCell>
        <mxCell id="vJmMyQdDrBQl8oO5ruZa-43" value="Y" style="shape=partialRectangle;html=1;whiteSpace=wrap;connectable=0;strokeColor=#6c8ebf;overflow=hidden;fillColor=none;top=0;left=0;bottom=0;right=0;pointerEvents=1;strokeWidth=2;" vertex="1" parent="vJmMyQdDrBQl8oO5ruZa-40">
          <mxGeometry x="72" width="36" height="18" as="geometry">
            <mxRectangle width="36" height="18" as="alternateBounds" />
          </mxGeometry>
        </mxCell>
        <mxCell id="vJmMyQdDrBQl8oO5ruZa-44" value="B" style="shape=partialRectangle;html=1;whiteSpace=wrap;connectable=0;strokeColor=#6c8ebf;overflow=hidden;fillColor=none;top=0;left=0;bottom=0;right=0;pointerEvents=1;strokeWidth=2;" vertex="1" parent="vJmMyQdDrBQl8oO5ruZa-40">
          <mxGeometry x="108" width="36" height="18" as="geometry">
            <mxRectangle width="36" height="18" as="alternateBounds" />
          </mxGeometry>
        </mxCell>
        <mxCell id="vJmMyQdDrBQl8oO5ruZa-45" value="D" style="shape=partialRectangle;html=1;whiteSpace=wrap;connectable=0;strokeColor=#6c8ebf;overflow=hidden;fillColor=none;top=0;left=0;bottom=0;right=0;pointerEvents=1;strokeWidth=2;" vertex="1" parent="vJmMyQdDrBQl8oO5ruZa-40">
          <mxGeometry x="144" width="36" height="18" as="geometry">
            <mxRectangle width="36" height="18" as="alternateBounds" />
          </mxGeometry>
        </mxCell>
        <mxCell id="vJmMyQdDrBQl8oO5ruZa-46" value="" style="shape=tableRow;horizontal=0;startSize=0;swimlaneHead=0;swimlaneBody=0;strokeColor=#6c8ebf;top=0;left=0;bottom=0;right=0;collapsible=0;dropTarget=0;fillColor=none;points=[[0,0.5],[1,0.5]];portConstraint=eastwest;strokeWidth=2;" vertex="1" parent="vJmMyQdDrBQl8oO5ruZa-33">
          <mxGeometry y="36" width="180" height="18" as="geometry" />
        </mxCell>
        <mxCell id="vJmMyQdDrBQl8oO5ruZa-47" value="E" style="shape=partialRectangle;html=1;whiteSpace=wrap;connectable=0;strokeColor=#6c8ebf;overflow=hidden;fillColor=none;top=0;left=0;bottom=0;right=0;pointerEvents=1;strokeWidth=2;" vertex="1" parent="vJmMyQdDrBQl8oO5ruZa-46">
          <mxGeometry width="36" height="18" as="geometry">
            <mxRectangle width="36" height="18" as="alternateBounds" />
          </mxGeometry>
        </mxCell>
        <mxCell id="vJmMyQdDrBQl8oO5ruZa-48" value="F" style="shape=partialRectangle;html=1;whiteSpace=wrap;connectable=0;strokeColor=#6c8ebf;overflow=hidden;fillColor=none;top=0;left=0;bottom=0;right=0;pointerEvents=1;strokeWidth=2;" vertex="1" parent="vJmMyQdDrBQl8oO5ruZa-46">
          <mxGeometry x="36" width="36" height="18" as="geometry">
            <mxRectangle width="36" height="18" as="alternateBounds" />
          </mxGeometry>
        </mxCell>
        <mxCell id="vJmMyQdDrBQl8oO5ruZa-49" value="G" style="shape=partialRectangle;html=1;whiteSpace=wrap;connectable=0;strokeColor=#6c8ebf;overflow=hidden;fillColor=none;top=0;left=0;bottom=0;right=0;pointerEvents=1;strokeWidth=2;" vertex="1" parent="vJmMyQdDrBQl8oO5ruZa-46">
          <mxGeometry x="72" width="36" height="18" as="geometry">
            <mxRectangle width="36" height="18" as="alternateBounds" />
          </mxGeometry>
        </mxCell>
        <mxCell id="vJmMyQdDrBQl8oO5ruZa-50" value="I" style="shape=partialRectangle;html=1;whiteSpace=wrap;connectable=0;strokeColor=#6c8ebf;overflow=hidden;fillColor=none;top=0;left=0;bottom=0;right=0;pointerEvents=1;strokeWidth=2;" vertex="1" parent="vJmMyQdDrBQl8oO5ruZa-46">
          <mxGeometry x="108" width="36" height="18" as="geometry">
            <mxRectangle width="36" height="18" as="alternateBounds" />
          </mxGeometry>
        </mxCell>
        <mxCell id="vJmMyQdDrBQl8oO5ruZa-51" value="K" style="shape=partialRectangle;html=1;whiteSpace=wrap;connectable=0;strokeColor=#6c8ebf;overflow=hidden;fillColor=none;top=0;left=0;bottom=0;right=0;pointerEvents=1;strokeWidth=2;" vertex="1" parent="vJmMyQdDrBQl8oO5ruZa-46">
          <mxGeometry x="144" width="36" height="18" as="geometry">
            <mxRectangle width="36" height="18" as="alternateBounds" />
          </mxGeometry>
        </mxCell>
        <mxCell id="vJmMyQdDrBQl8oO5ruZa-52" value="" style="shape=tableRow;horizontal=0;startSize=0;swimlaneHead=0;swimlaneBody=0;strokeColor=#6c8ebf;top=0;left=0;bottom=0;right=0;collapsible=0;dropTarget=0;fillColor=none;points=[[0,0.5],[1,0.5]];portConstraint=eastwest;strokeWidth=2;" vertex="1" parent="vJmMyQdDrBQl8oO5ruZa-33">
          <mxGeometry y="54" width="180" height="18" as="geometry" />
        </mxCell>
        <mxCell id="vJmMyQdDrBQl8oO5ruZa-53" value="L" style="shape=partialRectangle;html=1;whiteSpace=wrap;connectable=0;strokeColor=#006EAF;overflow=hidden;fillColor=#1ba1e2;top=0;left=0;bottom=0;right=0;pointerEvents=1;strokeWidth=2;fontColor=#ffffff;" vertex="1" parent="vJmMyQdDrBQl8oO5ruZa-52">
          <mxGeometry width="36" height="18" as="geometry">
            <mxRectangle width="36" height="18" as="alternateBounds" />
          </mxGeometry>
        </mxCell>
        <mxCell id="vJmMyQdDrBQl8oO5ruZa-54" value="P" style="shape=partialRectangle;html=1;whiteSpace=wrap;connectable=0;strokeColor=#6c8ebf;overflow=hidden;fillColor=none;top=0;left=0;bottom=0;right=0;pointerEvents=1;strokeWidth=2;" vertex="1" parent="vJmMyQdDrBQl8oO5ruZa-52">
          <mxGeometry x="36" width="36" height="18" as="geometry">
            <mxRectangle width="36" height="18" as="alternateBounds" />
          </mxGeometry>
        </mxCell>
        <mxCell id="vJmMyQdDrBQl8oO5ruZa-55" value="Q" style="shape=partialRectangle;html=1;whiteSpace=wrap;connectable=0;strokeColor=#6c8ebf;overflow=hidden;fillColor=none;top=0;left=0;bottom=0;right=0;pointerEvents=1;strokeWidth=2;" vertex="1" parent="vJmMyQdDrBQl8oO5ruZa-52">
          <mxGeometry x="72" width="36" height="18" as="geometry">
            <mxRectangle width="36" height="18" as="alternateBounds" />
          </mxGeometry>
        </mxCell>
        <mxCell id="vJmMyQdDrBQl8oO5ruZa-56" value="S" style="shape=partialRectangle;html=1;whiteSpace=wrap;connectable=0;strokeColor=#6F0000;overflow=hidden;fillColor=#a20025;top=0;left=0;bottom=0;right=0;pointerEvents=1;strokeWidth=2;fontColor=#ffffff;" vertex="1" parent="vJmMyQdDrBQl8oO5ruZa-52">
          <mxGeometry x="108" width="36" height="18" as="geometry">
            <mxRectangle width="36" height="18" as="alternateBounds" />
          </mxGeometry>
        </mxCell>
        <mxCell id="vJmMyQdDrBQl8oO5ruZa-57" value="T" style="shape=partialRectangle;html=1;whiteSpace=wrap;connectable=0;strokeColor=#006EAF;overflow=hidden;fillColor=#1ba1e2;top=0;left=0;bottom=0;right=0;pointerEvents=1;strokeWidth=2;fontColor=#ffffff;" vertex="1" parent="vJmMyQdDrBQl8oO5ruZa-52">
          <mxGeometry x="144" width="36" height="18" as="geometry">
            <mxRectangle width="36" height="18" as="alternateBounds" />
          </mxGeometry>
        </mxCell>
        <mxCell id="vJmMyQdDrBQl8oO5ruZa-58" value="" style="shape=tableRow;horizontal=0;startSize=0;swimlaneHead=0;swimlaneBody=0;strokeColor=#6c8ebf;top=0;left=0;bottom=0;right=0;collapsible=0;dropTarget=0;fillColor=none;points=[[0,0.5],[1,0.5]];portConstraint=eastwest;strokeWidth=2;" vertex="1" parent="vJmMyQdDrBQl8oO5ruZa-33">
          <mxGeometry y="72" width="180" height="18" as="geometry" />
        </mxCell>
        <mxCell id="vJmMyQdDrBQl8oO5ruZa-59" value="U" style="shape=partialRectangle;html=1;whiteSpace=wrap;connectable=0;strokeColor=#6c8ebf;overflow=hidden;fillColor=none;top=0;left=0;bottom=0;right=0;pointerEvents=1;strokeWidth=2;" vertex="1" parent="vJmMyQdDrBQl8oO5ruZa-58">
          <mxGeometry width="36" height="18" as="geometry">
            <mxRectangle width="36" height="18" as="alternateBounds" />
          </mxGeometry>
        </mxCell>
        <mxCell id="vJmMyQdDrBQl8oO5ruZa-60" value="V" style="shape=partialRectangle;html=1;whiteSpace=wrap;connectable=0;strokeColor=#6c8ebf;overflow=hidden;fillColor=none;top=0;left=0;bottom=0;right=0;pointerEvents=1;strokeWidth=2;" vertex="1" parent="vJmMyQdDrBQl8oO5ruZa-58">
          <mxGeometry x="36" width="36" height="18" as="geometry">
            <mxRectangle width="36" height="18" as="alternateBounds" />
          </mxGeometry>
        </mxCell>
        <mxCell id="vJmMyQdDrBQl8oO5ruZa-61" value="W" style="shape=partialRectangle;html=1;whiteSpace=wrap;connectable=0;strokeColor=#6c8ebf;overflow=hidden;fillColor=none;top=0;left=0;bottom=0;right=0;pointerEvents=1;strokeWidth=2;" vertex="1" parent="vJmMyQdDrBQl8oO5ruZa-58">
          <mxGeometry x="72" width="36" height="18" as="geometry">
            <mxRectangle width="36" height="18" as="alternateBounds" />
          </mxGeometry>
        </mxCell>
        <mxCell id="vJmMyQdDrBQl8oO5ruZa-62" value="X" style="shape=partialRectangle;html=1;whiteSpace=wrap;connectable=0;strokeColor=#6c8ebf;overflow=hidden;fillColor=none;top=0;left=0;bottom=0;right=0;pointerEvents=1;strokeWidth=2;" vertex="1" parent="vJmMyQdDrBQl8oO5ruZa-58">
          <mxGeometry x="108" width="36" height="18" as="geometry">
            <mxRectangle width="36" height="18" as="alternateBounds" />
          </mxGeometry>
        </mxCell>
        <mxCell id="vJmMyQdDrBQl8oO5ruZa-63" value="Z" style="shape=partialRectangle;html=1;whiteSpace=wrap;connectable=0;strokeColor=#6c8ebf;overflow=hidden;fillColor=none;top=0;left=0;bottom=0;right=0;pointerEvents=1;strokeWidth=2;" vertex="1" parent="vJmMyQdDrBQl8oO5ruZa-58">
          <mxGeometry x="144" width="36" height="18" as="geometry">
            <mxRectangle width="36" height="18" as="alternateBounds" />
          </mxGeometry>
        </mxCell>
        <mxCell id="vJmMyQdDrBQl8oO5ruZa-64" value="" style="shape=table;startSize=0;container=1;collapsible=0;childLayout=tableLayout;fillColor=#dae8fc;strokeWidth=2;strokeColor=#6c8ebf;" vertex="1" parent="1">
          <mxGeometry x="450" y="150" width="180" height="90" as="geometry" />
        </mxCell>
        <mxCell id="vJmMyQdDrBQl8oO5ruZa-65" value="" style="shape=tableRow;horizontal=0;startSize=0;swimlaneHead=0;swimlaneBody=0;strokeColor=#6c8ebf;top=0;left=0;bottom=0;right=0;collapsible=0;dropTarget=0;fillColor=none;points=[[0,0.5],[1,0.5]];portConstraint=eastwest;strokeWidth=2;" vertex="1" parent="vJmMyQdDrBQl8oO5ruZa-64">
          <mxGeometry width="180" height="18" as="geometry" />
        </mxCell>
        <mxCell id="vJmMyQdDrBQl8oO5ruZa-66" value="M" style="shape=partialRectangle;html=1;whiteSpace=wrap;connectable=0;strokeColor=#006EAF;overflow=hidden;fillColor=#1ba1e2;top=0;left=0;bottom=0;right=0;pointerEvents=1;shadow=0;strokeWidth=2;fontColor=#ffffff;" vertex="1" parent="vJmMyQdDrBQl8oO5ruZa-65">
          <mxGeometry width="36" height="18" as="geometry">
            <mxRectangle width="36" height="18" as="alternateBounds" />
          </mxGeometry>
        </mxCell>
        <mxCell id="vJmMyQdDrBQl8oO5ruZa-67" value="O" style="shape=partialRectangle;html=1;whiteSpace=wrap;connectable=0;strokeColor=#6c8ebf;overflow=hidden;fillColor=none;top=0;left=0;bottom=0;right=0;pointerEvents=1;strokeWidth=2;" vertex="1" parent="vJmMyQdDrBQl8oO5ruZa-65">
          <mxGeometry x="36" width="36" height="18" as="geometry">
            <mxRectangle width="36" height="18" as="alternateBounds" />
          </mxGeometry>
        </mxCell>
        <mxCell id="vJmMyQdDrBQl8oO5ruZa-68" value="N" style="shape=partialRectangle;html=1;whiteSpace=wrap;connectable=0;strokeColor=#6c8ebf;overflow=hidden;fillColor=none;top=0;left=0;bottom=0;right=0;pointerEvents=1;strokeWidth=2;" vertex="1" parent="vJmMyQdDrBQl8oO5ruZa-65">
          <mxGeometry x="72" width="36" height="18" as="geometry">
            <mxRectangle width="36" height="18" as="alternateBounds" />
          </mxGeometry>
        </mxCell>
        <mxCell id="vJmMyQdDrBQl8oO5ruZa-69" value="A" style="shape=partialRectangle;html=1;whiteSpace=wrap;connectable=0;strokeColor=#6c8ebf;overflow=hidden;fillColor=none;top=0;left=0;bottom=0;right=0;pointerEvents=1;strokeWidth=2;" vertex="1" parent="vJmMyQdDrBQl8oO5ruZa-65">
          <mxGeometry x="108" width="36" height="18" as="geometry">
            <mxRectangle width="36" height="18" as="alternateBounds" />
          </mxGeometry>
        </mxCell>
        <mxCell id="vJmMyQdDrBQl8oO5ruZa-70" value="R" style="shape=partialRectangle;html=1;whiteSpace=wrap;connectable=0;strokeColor=#6F0000;overflow=hidden;fillColor=#a20025;top=0;left=0;bottom=0;right=0;pointerEvents=1;strokeWidth=2;fontColor=#ffffff;" vertex="1" parent="vJmMyQdDrBQl8oO5ruZa-65">
          <mxGeometry x="144" width="36" height="18" as="geometry">
            <mxRectangle width="36" height="18" as="alternateBounds" />
          </mxGeometry>
        </mxCell>
        <mxCell id="vJmMyQdDrBQl8oO5ruZa-71" value="" style="shape=tableRow;horizontal=0;startSize=0;swimlaneHead=0;swimlaneBody=0;strokeColor=#6c8ebf;top=0;left=0;bottom=0;right=0;collapsible=0;dropTarget=0;fillColor=none;points=[[0,0.5],[1,0.5]];portConstraint=eastwest;strokeWidth=2;" vertex="1" parent="vJmMyQdDrBQl8oO5ruZa-64">
          <mxGeometry y="18" width="180" height="18" as="geometry" />
        </mxCell>
        <mxCell id="vJmMyQdDrBQl8oO5ruZa-72" value="C" style="shape=partialRectangle;html=1;whiteSpace=wrap;connectable=0;strokeColor=#6c8ebf;overflow=hidden;fillColor=none;top=0;left=0;bottom=0;right=0;pointerEvents=1;strokeWidth=2;" vertex="1" parent="vJmMyQdDrBQl8oO5ruZa-71">
          <mxGeometry width="36" height="18" as="geometry">
            <mxRectangle width="36" height="18" as="alternateBounds" />
          </mxGeometry>
        </mxCell>
        <mxCell id="vJmMyQdDrBQl8oO5ruZa-73" value="H" style="shape=partialRectangle;html=1;whiteSpace=wrap;connectable=0;strokeColor=#6c8ebf;overflow=hidden;fillColor=none;top=0;left=0;bottom=0;right=0;pointerEvents=1;strokeWidth=2;" vertex="1" parent="vJmMyQdDrBQl8oO5ruZa-71">
          <mxGeometry x="36" width="36" height="18" as="geometry">
            <mxRectangle width="36" height="18" as="alternateBounds" />
          </mxGeometry>
        </mxCell>
        <mxCell id="vJmMyQdDrBQl8oO5ruZa-74" value="Y" style="shape=partialRectangle;html=1;whiteSpace=wrap;connectable=0;strokeColor=#6c8ebf;overflow=hidden;fillColor=none;top=0;left=0;bottom=0;right=0;pointerEvents=1;strokeWidth=2;" vertex="1" parent="vJmMyQdDrBQl8oO5ruZa-71">
          <mxGeometry x="72" width="36" height="18" as="geometry">
            <mxRectangle width="36" height="18" as="alternateBounds" />
          </mxGeometry>
        </mxCell>
        <mxCell id="vJmMyQdDrBQl8oO5ruZa-75" value="B" style="shape=partialRectangle;html=1;whiteSpace=wrap;connectable=0;strokeColor=#6c8ebf;overflow=hidden;fillColor=none;top=0;left=0;bottom=0;right=0;pointerEvents=1;strokeWidth=2;" vertex="1" parent="vJmMyQdDrBQl8oO5ruZa-71">
          <mxGeometry x="108" width="36" height="18" as="geometry">
            <mxRectangle width="36" height="18" as="alternateBounds" />
          </mxGeometry>
        </mxCell>
        <mxCell id="vJmMyQdDrBQl8oO5ruZa-76" value="D" style="shape=partialRectangle;html=1;whiteSpace=wrap;connectable=0;strokeColor=#6c8ebf;overflow=hidden;fillColor=none;top=0;left=0;bottom=0;right=0;pointerEvents=1;strokeWidth=2;" vertex="1" parent="vJmMyQdDrBQl8oO5ruZa-71">
          <mxGeometry x="144" width="36" height="18" as="geometry">
            <mxRectangle width="36" height="18" as="alternateBounds" />
          </mxGeometry>
        </mxCell>
        <mxCell id="vJmMyQdDrBQl8oO5ruZa-77" value="" style="shape=tableRow;horizontal=0;startSize=0;swimlaneHead=0;swimlaneBody=0;strokeColor=#6c8ebf;top=0;left=0;bottom=0;right=0;collapsible=0;dropTarget=0;fillColor=none;points=[[0,0.5],[1,0.5]];portConstraint=eastwest;strokeWidth=2;" vertex="1" parent="vJmMyQdDrBQl8oO5ruZa-64">
          <mxGeometry y="36" width="180" height="18" as="geometry" />
        </mxCell>
        <mxCell id="vJmMyQdDrBQl8oO5ruZa-78" value="E" style="shape=partialRectangle;html=1;whiteSpace=wrap;connectable=0;strokeColor=#6c8ebf;overflow=hidden;fillColor=none;top=0;left=0;bottom=0;right=0;pointerEvents=1;strokeWidth=2;" vertex="1" parent="vJmMyQdDrBQl8oO5ruZa-77">
          <mxGeometry width="36" height="18" as="geometry">
            <mxRectangle width="36" height="18" as="alternateBounds" />
          </mxGeometry>
        </mxCell>
        <mxCell id="vJmMyQdDrBQl8oO5ruZa-79" value="F" style="shape=partialRectangle;html=1;whiteSpace=wrap;connectable=0;strokeColor=#6c8ebf;overflow=hidden;fillColor=none;top=0;left=0;bottom=0;right=0;pointerEvents=1;strokeWidth=2;" vertex="1" parent="vJmMyQdDrBQl8oO5ruZa-77">
          <mxGeometry x="36" width="36" height="18" as="geometry">
            <mxRectangle width="36" height="18" as="alternateBounds" />
          </mxGeometry>
        </mxCell>
        <mxCell id="vJmMyQdDrBQl8oO5ruZa-80" value="G" style="shape=partialRectangle;html=1;whiteSpace=wrap;connectable=0;strokeColor=#6c8ebf;overflow=hidden;fillColor=none;top=0;left=0;bottom=0;right=0;pointerEvents=1;strokeWidth=2;" vertex="1" parent="vJmMyQdDrBQl8oO5ruZa-77">
          <mxGeometry x="72" width="36" height="18" as="geometry">
            <mxRectangle width="36" height="18" as="alternateBounds" />
          </mxGeometry>
        </mxCell>
        <mxCell id="vJmMyQdDrBQl8oO5ruZa-81" value="I" style="shape=partialRectangle;html=1;whiteSpace=wrap;connectable=0;strokeColor=#6c8ebf;overflow=hidden;fillColor=none;top=0;left=0;bottom=0;right=0;pointerEvents=1;strokeWidth=2;" vertex="1" parent="vJmMyQdDrBQl8oO5ruZa-77">
          <mxGeometry x="108" width="36" height="18" as="geometry">
            <mxRectangle width="36" height="18" as="alternateBounds" />
          </mxGeometry>
        </mxCell>
        <mxCell id="vJmMyQdDrBQl8oO5ruZa-82" value="K" style="shape=partialRectangle;html=1;whiteSpace=wrap;connectable=0;strokeColor=#6c8ebf;overflow=hidden;fillColor=none;top=0;left=0;bottom=0;right=0;pointerEvents=1;strokeWidth=2;" vertex="1" parent="vJmMyQdDrBQl8oO5ruZa-77">
          <mxGeometry x="144" width="36" height="18" as="geometry">
            <mxRectangle width="36" height="18" as="alternateBounds" />
          </mxGeometry>
        </mxCell>
        <mxCell id="vJmMyQdDrBQl8oO5ruZa-83" value="" style="shape=tableRow;horizontal=0;startSize=0;swimlaneHead=0;swimlaneBody=0;strokeColor=#6c8ebf;top=0;left=0;bottom=0;right=0;collapsible=0;dropTarget=0;fillColor=none;points=[[0,0.5],[1,0.5]];portConstraint=eastwest;strokeWidth=2;" vertex="1" parent="vJmMyQdDrBQl8oO5ruZa-64">
          <mxGeometry y="54" width="180" height="18" as="geometry" />
        </mxCell>
        <mxCell id="vJmMyQdDrBQl8oO5ruZa-84" value="L" style="shape=partialRectangle;html=1;whiteSpace=wrap;connectable=0;strokeColor=#6c8ebf;overflow=hidden;fillColor=none;top=0;left=0;bottom=0;right=0;pointerEvents=1;strokeWidth=2;" vertex="1" parent="vJmMyQdDrBQl8oO5ruZa-83">
          <mxGeometry width="36" height="18" as="geometry">
            <mxRectangle width="36" height="18" as="alternateBounds" />
          </mxGeometry>
        </mxCell>
        <mxCell id="vJmMyQdDrBQl8oO5ruZa-85" value="P" style="shape=partialRectangle;html=1;whiteSpace=wrap;connectable=0;strokeColor=#6c8ebf;overflow=hidden;fillColor=none;top=0;left=0;bottom=0;right=0;pointerEvents=1;strokeWidth=2;" vertex="1" parent="vJmMyQdDrBQl8oO5ruZa-83">
          <mxGeometry x="36" width="36" height="18" as="geometry">
            <mxRectangle width="36" height="18" as="alternateBounds" />
          </mxGeometry>
        </mxCell>
        <mxCell id="vJmMyQdDrBQl8oO5ruZa-86" value="Q" style="shape=partialRectangle;html=1;whiteSpace=wrap;connectable=0;strokeColor=#6c8ebf;overflow=hidden;fillColor=none;top=0;left=0;bottom=0;right=0;pointerEvents=1;strokeWidth=2;" vertex="1" parent="vJmMyQdDrBQl8oO5ruZa-83">
          <mxGeometry x="72" width="36" height="18" as="geometry">
            <mxRectangle width="36" height="18" as="alternateBounds" />
          </mxGeometry>
        </mxCell>
        <mxCell id="vJmMyQdDrBQl8oO5ruZa-87" value="S" style="shape=partialRectangle;html=1;whiteSpace=wrap;connectable=0;strokeColor=#6c8ebf;overflow=hidden;fillColor=none;top=0;left=0;bottom=0;right=0;pointerEvents=1;strokeWidth=2;" vertex="1" parent="vJmMyQdDrBQl8oO5ruZa-83">
          <mxGeometry x="108" width="36" height="18" as="geometry">
            <mxRectangle width="36" height="18" as="alternateBounds" />
          </mxGeometry>
        </mxCell>
        <mxCell id="vJmMyQdDrBQl8oO5ruZa-88" value="T" style="shape=partialRectangle;html=1;whiteSpace=wrap;connectable=0;strokeColor=#6c8ebf;overflow=hidden;fillColor=none;top=0;left=0;bottom=0;right=0;pointerEvents=1;strokeWidth=2;" vertex="1" parent="vJmMyQdDrBQl8oO5ruZa-83">
          <mxGeometry x="144" width="36" height="18" as="geometry">
            <mxRectangle width="36" height="18" as="alternateBounds" />
          </mxGeometry>
        </mxCell>
        <mxCell id="vJmMyQdDrBQl8oO5ruZa-89" value="" style="shape=tableRow;horizontal=0;startSize=0;swimlaneHead=0;swimlaneBody=0;strokeColor=#6c8ebf;top=0;left=0;bottom=0;right=0;collapsible=0;dropTarget=0;fillColor=none;points=[[0,0.5],[1,0.5]];portConstraint=eastwest;strokeWidth=2;" vertex="1" parent="vJmMyQdDrBQl8oO5ruZa-64">
          <mxGeometry y="72" width="180" height="18" as="geometry" />
        </mxCell>
        <mxCell id="vJmMyQdDrBQl8oO5ruZa-90" value="U" style="shape=partialRectangle;html=1;whiteSpace=wrap;connectable=0;strokeColor=#6F0000;overflow=hidden;fillColor=#a20025;top=0;left=0;bottom=0;right=0;pointerEvents=1;strokeWidth=2;fontColor=#ffffff;" vertex="1" parent="vJmMyQdDrBQl8oO5ruZa-89">
          <mxGeometry width="36" height="18" as="geometry">
            <mxRectangle width="36" height="18" as="alternateBounds" />
          </mxGeometry>
        </mxCell>
        <mxCell id="vJmMyQdDrBQl8oO5ruZa-91" value="V" style="shape=partialRectangle;html=1;whiteSpace=wrap;connectable=0;strokeColor=#6c8ebf;overflow=hidden;fillColor=none;top=0;left=0;bottom=0;right=0;pointerEvents=1;strokeWidth=2;" vertex="1" parent="vJmMyQdDrBQl8oO5ruZa-89">
          <mxGeometry x="36" width="36" height="18" as="geometry">
            <mxRectangle width="36" height="18" as="alternateBounds" />
          </mxGeometry>
        </mxCell>
        <mxCell id="vJmMyQdDrBQl8oO5ruZa-92" value="W" style="shape=partialRectangle;html=1;whiteSpace=wrap;connectable=0;strokeColor=#6c8ebf;overflow=hidden;fillColor=none;top=0;left=0;bottom=0;right=0;pointerEvents=1;strokeWidth=2;" vertex="1" parent="vJmMyQdDrBQl8oO5ruZa-89">
          <mxGeometry x="72" width="36" height="18" as="geometry">
            <mxRectangle width="36" height="18" as="alternateBounds" />
          </mxGeometry>
        </mxCell>
        <mxCell id="vJmMyQdDrBQl8oO5ruZa-93" value="X" style="shape=partialRectangle;html=1;whiteSpace=wrap;connectable=0;strokeColor=#6c8ebf;overflow=hidden;fillColor=none;top=0;left=0;bottom=0;right=0;pointerEvents=1;strokeWidth=2;" vertex="1" parent="vJmMyQdDrBQl8oO5ruZa-89">
          <mxGeometry x="108" width="36" height="18" as="geometry">
            <mxRectangle width="36" height="18" as="alternateBounds" />
          </mxGeometry>
        </mxCell>
        <mxCell id="vJmMyQdDrBQl8oO5ruZa-94" value="Z" style="shape=partialRectangle;html=1;whiteSpace=wrap;connectable=0;strokeColor=#006EAF;overflow=hidden;fillColor=#1ba1e2;top=0;left=0;bottom=0;right=0;pointerEvents=1;strokeWidth=2;fontColor=#ffffff;" vertex="1" parent="vJmMyQdDrBQl8oO5ruZa-89">
          <mxGeometry x="144" width="36" height="18" as="geometry">
            <mxRectangle width="36" height="18" as="alternateBounds" />
          </mxGeometry>
        </mxCell>
        <mxCell id="vJmMyQdDrBQl8oO5ruZa-95" value="" style="shape=table;startSize=0;container=1;collapsible=0;childLayout=tableLayout;fillColor=#dae8fc;strokeWidth=2;strokeColor=#6c8ebf;" vertex="1" parent="1">
          <mxGeometry x="30" y="270" width="180" height="90" as="geometry" />
        </mxCell>
        <mxCell id="vJmMyQdDrBQl8oO5ruZa-96" value="" style="shape=tableRow;horizontal=0;startSize=0;swimlaneHead=0;swimlaneBody=0;strokeColor=#6c8ebf;top=0;left=0;bottom=0;right=0;collapsible=0;dropTarget=0;fillColor=none;points=[[0,0.5],[1,0.5]];portConstraint=eastwest;strokeWidth=2;" vertex="1" parent="vJmMyQdDrBQl8oO5ruZa-95">
          <mxGeometry width="180" height="18" as="geometry" />
        </mxCell>
        <mxCell id="vJmMyQdDrBQl8oO5ruZa-97" value="M" style="shape=partialRectangle;html=1;whiteSpace=wrap;connectable=0;strokeColor=#6F0000;overflow=hidden;fillColor=#a20025;top=0;left=0;bottom=0;right=0;pointerEvents=1;shadow=0;strokeWidth=2;fontColor=#ffffff;" vertex="1" parent="vJmMyQdDrBQl8oO5ruZa-96">
          <mxGeometry width="36" height="18" as="geometry">
            <mxRectangle width="36" height="18" as="alternateBounds" />
          </mxGeometry>
        </mxCell>
        <mxCell id="vJmMyQdDrBQl8oO5ruZa-98" value="O" style="shape=partialRectangle;html=1;whiteSpace=wrap;connectable=0;strokeColor=#6c8ebf;overflow=hidden;fillColor=none;top=0;left=0;bottom=0;right=0;pointerEvents=1;strokeWidth=2;" vertex="1" parent="vJmMyQdDrBQl8oO5ruZa-96">
          <mxGeometry x="36" width="36" height="18" as="geometry">
            <mxRectangle width="36" height="18" as="alternateBounds" />
          </mxGeometry>
        </mxCell>
        <mxCell id="vJmMyQdDrBQl8oO5ruZa-99" value="N" style="shape=partialRectangle;html=1;whiteSpace=wrap;connectable=0;strokeColor=#6c8ebf;overflow=hidden;fillColor=none;top=0;left=0;bottom=0;right=0;pointerEvents=1;strokeWidth=2;" vertex="1" parent="vJmMyQdDrBQl8oO5ruZa-96">
          <mxGeometry x="72" width="36" height="18" as="geometry">
            <mxRectangle width="36" height="18" as="alternateBounds" />
          </mxGeometry>
        </mxCell>
        <mxCell id="vJmMyQdDrBQl8oO5ruZa-100" value="A" style="shape=partialRectangle;html=1;whiteSpace=wrap;connectable=0;strokeColor=#6c8ebf;overflow=hidden;fillColor=none;top=0;left=0;bottom=0;right=0;pointerEvents=1;strokeWidth=2;" vertex="1" parent="vJmMyQdDrBQl8oO5ruZa-96">
          <mxGeometry x="108" width="36" height="18" as="geometry">
            <mxRectangle width="36" height="18" as="alternateBounds" />
          </mxGeometry>
        </mxCell>
        <mxCell id="vJmMyQdDrBQl8oO5ruZa-101" value="R" style="shape=partialRectangle;html=1;whiteSpace=wrap;connectable=0;strokeColor=#6c8ebf;overflow=hidden;fillColor=none;top=0;left=0;bottom=0;right=0;pointerEvents=1;strokeWidth=2;" vertex="1" parent="vJmMyQdDrBQl8oO5ruZa-96">
          <mxGeometry x="144" width="36" height="18" as="geometry">
            <mxRectangle width="36" height="18" as="alternateBounds" />
          </mxGeometry>
        </mxCell>
        <mxCell id="vJmMyQdDrBQl8oO5ruZa-102" value="" style="shape=tableRow;horizontal=0;startSize=0;swimlaneHead=0;swimlaneBody=0;strokeColor=#6c8ebf;top=0;left=0;bottom=0;right=0;collapsible=0;dropTarget=0;fillColor=none;points=[[0,0.5],[1,0.5]];portConstraint=eastwest;strokeWidth=2;" vertex="1" parent="vJmMyQdDrBQl8oO5ruZa-95">
          <mxGeometry y="18" width="180" height="18" as="geometry" />
        </mxCell>
        <mxCell id="vJmMyQdDrBQl8oO5ruZa-103" value="C" style="shape=partialRectangle;html=1;whiteSpace=wrap;connectable=0;strokeColor=#006EAF;overflow=hidden;fillColor=#1ba1e2;top=0;left=0;bottom=0;right=0;pointerEvents=1;strokeWidth=2;fontColor=#ffffff;" vertex="1" parent="vJmMyQdDrBQl8oO5ruZa-102">
          <mxGeometry width="36" height="18" as="geometry">
            <mxRectangle width="36" height="18" as="alternateBounds" />
          </mxGeometry>
        </mxCell>
        <mxCell id="vJmMyQdDrBQl8oO5ruZa-104" value="H" style="shape=partialRectangle;html=1;whiteSpace=wrap;connectable=0;strokeColor=#6c8ebf;overflow=hidden;fillColor=none;top=0;left=0;bottom=0;right=0;pointerEvents=1;strokeWidth=2;" vertex="1" parent="vJmMyQdDrBQl8oO5ruZa-102">
          <mxGeometry x="36" width="36" height="18" as="geometry">
            <mxRectangle width="36" height="18" as="alternateBounds" />
          </mxGeometry>
        </mxCell>
        <mxCell id="vJmMyQdDrBQl8oO5ruZa-105" value="Y" style="shape=partialRectangle;html=1;whiteSpace=wrap;connectable=0;strokeColor=#6c8ebf;overflow=hidden;fillColor=none;top=0;left=0;bottom=0;right=0;pointerEvents=1;strokeWidth=2;" vertex="1" parent="vJmMyQdDrBQl8oO5ruZa-102">
          <mxGeometry x="72" width="36" height="18" as="geometry">
            <mxRectangle width="36" height="18" as="alternateBounds" />
          </mxGeometry>
        </mxCell>
        <mxCell id="vJmMyQdDrBQl8oO5ruZa-106" value="B" style="shape=partialRectangle;html=1;whiteSpace=wrap;connectable=0;strokeColor=#6c8ebf;overflow=hidden;fillColor=none;top=0;left=0;bottom=0;right=0;pointerEvents=1;strokeWidth=2;" vertex="1" parent="vJmMyQdDrBQl8oO5ruZa-102">
          <mxGeometry x="108" width="36" height="18" as="geometry">
            <mxRectangle width="36" height="18" as="alternateBounds" />
          </mxGeometry>
        </mxCell>
        <mxCell id="vJmMyQdDrBQl8oO5ruZa-107" value="D" style="shape=partialRectangle;html=1;whiteSpace=wrap;connectable=0;strokeColor=#6c8ebf;overflow=hidden;fillColor=none;top=0;left=0;bottom=0;right=0;pointerEvents=1;strokeWidth=2;" vertex="1" parent="vJmMyQdDrBQl8oO5ruZa-102">
          <mxGeometry x="144" width="36" height="18" as="geometry">
            <mxRectangle width="36" height="18" as="alternateBounds" />
          </mxGeometry>
        </mxCell>
        <mxCell id="vJmMyQdDrBQl8oO5ruZa-108" value="" style="shape=tableRow;horizontal=0;startSize=0;swimlaneHead=0;swimlaneBody=0;strokeColor=#6c8ebf;top=0;left=0;bottom=0;right=0;collapsible=0;dropTarget=0;fillColor=none;points=[[0,0.5],[1,0.5]];portConstraint=eastwest;strokeWidth=2;" vertex="1" parent="vJmMyQdDrBQl8oO5ruZa-95">
          <mxGeometry y="36" width="180" height="18" as="geometry" />
        </mxCell>
        <mxCell id="vJmMyQdDrBQl8oO5ruZa-109" value="E" style="shape=partialRectangle;html=1;whiteSpace=wrap;connectable=0;strokeColor=#6F0000;overflow=hidden;fillColor=#a20025;top=0;left=0;bottom=0;right=0;pointerEvents=1;strokeWidth=2;fontColor=#ffffff;" vertex="1" parent="vJmMyQdDrBQl8oO5ruZa-108">
          <mxGeometry width="36" height="18" as="geometry">
            <mxRectangle width="36" height="18" as="alternateBounds" />
          </mxGeometry>
        </mxCell>
        <mxCell id="vJmMyQdDrBQl8oO5ruZa-110" value="F" style="shape=partialRectangle;html=1;whiteSpace=wrap;connectable=0;strokeColor=#6c8ebf;overflow=hidden;fillColor=none;top=0;left=0;bottom=0;right=0;pointerEvents=1;strokeWidth=2;" vertex="1" parent="vJmMyQdDrBQl8oO5ruZa-108">
          <mxGeometry x="36" width="36" height="18" as="geometry">
            <mxRectangle width="36" height="18" as="alternateBounds" />
          </mxGeometry>
        </mxCell>
        <mxCell id="vJmMyQdDrBQl8oO5ruZa-111" value="G" style="shape=partialRectangle;html=1;whiteSpace=wrap;connectable=0;strokeColor=#6c8ebf;overflow=hidden;fillColor=none;top=0;left=0;bottom=0;right=0;pointerEvents=1;strokeWidth=2;" vertex="1" parent="vJmMyQdDrBQl8oO5ruZa-108">
          <mxGeometry x="72" width="36" height="18" as="geometry">
            <mxRectangle width="36" height="18" as="alternateBounds" />
          </mxGeometry>
        </mxCell>
        <mxCell id="vJmMyQdDrBQl8oO5ruZa-112" value="I" style="shape=partialRectangle;html=1;whiteSpace=wrap;connectable=0;strokeColor=#6c8ebf;overflow=hidden;fillColor=none;top=0;left=0;bottom=0;right=0;pointerEvents=1;strokeWidth=2;" vertex="1" parent="vJmMyQdDrBQl8oO5ruZa-108">
          <mxGeometry x="108" width="36" height="18" as="geometry">
            <mxRectangle width="36" height="18" as="alternateBounds" />
          </mxGeometry>
        </mxCell>
        <mxCell id="vJmMyQdDrBQl8oO5ruZa-113" value="K" style="shape=partialRectangle;html=1;whiteSpace=wrap;connectable=0;strokeColor=#6c8ebf;overflow=hidden;fillColor=none;top=0;left=0;bottom=0;right=0;pointerEvents=1;strokeWidth=2;" vertex="1" parent="vJmMyQdDrBQl8oO5ruZa-108">
          <mxGeometry x="144" width="36" height="18" as="geometry">
            <mxRectangle width="36" height="18" as="alternateBounds" />
          </mxGeometry>
        </mxCell>
        <mxCell id="vJmMyQdDrBQl8oO5ruZa-114" value="" style="shape=tableRow;horizontal=0;startSize=0;swimlaneHead=0;swimlaneBody=0;strokeColor=#6c8ebf;top=0;left=0;bottom=0;right=0;collapsible=0;dropTarget=0;fillColor=none;points=[[0,0.5],[1,0.5]];portConstraint=eastwest;strokeWidth=2;" vertex="1" parent="vJmMyQdDrBQl8oO5ruZa-95">
          <mxGeometry y="54" width="180" height="18" as="geometry" />
        </mxCell>
        <mxCell id="vJmMyQdDrBQl8oO5ruZa-115" value="L" style="shape=partialRectangle;html=1;whiteSpace=wrap;connectable=0;strokeColor=#006EAF;overflow=hidden;fillColor=#1ba1e2;top=0;left=0;bottom=0;right=0;pointerEvents=1;strokeWidth=2;fontColor=#ffffff;" vertex="1" parent="vJmMyQdDrBQl8oO5ruZa-114">
          <mxGeometry width="36" height="18" as="geometry">
            <mxRectangle width="36" height="18" as="alternateBounds" />
          </mxGeometry>
        </mxCell>
        <mxCell id="vJmMyQdDrBQl8oO5ruZa-116" value="P" style="shape=partialRectangle;html=1;whiteSpace=wrap;connectable=0;strokeColor=#6c8ebf;overflow=hidden;fillColor=none;top=0;left=0;bottom=0;right=0;pointerEvents=1;strokeWidth=2;" vertex="1" parent="vJmMyQdDrBQl8oO5ruZa-114">
          <mxGeometry x="36" width="36" height="18" as="geometry">
            <mxRectangle width="36" height="18" as="alternateBounds" />
          </mxGeometry>
        </mxCell>
        <mxCell id="vJmMyQdDrBQl8oO5ruZa-117" value="Q" style="shape=partialRectangle;html=1;whiteSpace=wrap;connectable=0;strokeColor=#6c8ebf;overflow=hidden;fillColor=none;top=0;left=0;bottom=0;right=0;pointerEvents=1;strokeWidth=2;" vertex="1" parent="vJmMyQdDrBQl8oO5ruZa-114">
          <mxGeometry x="72" width="36" height="18" as="geometry">
            <mxRectangle width="36" height="18" as="alternateBounds" />
          </mxGeometry>
        </mxCell>
        <mxCell id="vJmMyQdDrBQl8oO5ruZa-118" value="S" style="shape=partialRectangle;html=1;whiteSpace=wrap;connectable=0;strokeColor=#6c8ebf;overflow=hidden;fillColor=none;top=0;left=0;bottom=0;right=0;pointerEvents=1;strokeWidth=2;" vertex="1" parent="vJmMyQdDrBQl8oO5ruZa-114">
          <mxGeometry x="108" width="36" height="18" as="geometry">
            <mxRectangle width="36" height="18" as="alternateBounds" />
          </mxGeometry>
        </mxCell>
        <mxCell id="vJmMyQdDrBQl8oO5ruZa-119" value="T" style="shape=partialRectangle;html=1;whiteSpace=wrap;connectable=0;strokeColor=#6c8ebf;overflow=hidden;fillColor=none;top=0;left=0;bottom=0;right=0;pointerEvents=1;strokeWidth=2;" vertex="1" parent="vJmMyQdDrBQl8oO5ruZa-114">
          <mxGeometry x="144" width="36" height="18" as="geometry">
            <mxRectangle width="36" height="18" as="alternateBounds" />
          </mxGeometry>
        </mxCell>
        <mxCell id="vJmMyQdDrBQl8oO5ruZa-120" value="" style="shape=tableRow;horizontal=0;startSize=0;swimlaneHead=0;swimlaneBody=0;strokeColor=#6c8ebf;top=0;left=0;bottom=0;right=0;collapsible=0;dropTarget=0;fillColor=none;points=[[0,0.5],[1,0.5]];portConstraint=eastwest;strokeWidth=2;" vertex="1" parent="vJmMyQdDrBQl8oO5ruZa-95">
          <mxGeometry y="72" width="180" height="18" as="geometry" />
        </mxCell>
        <mxCell id="vJmMyQdDrBQl8oO5ruZa-121" value="U" style="shape=partialRectangle;html=1;whiteSpace=wrap;connectable=0;strokeColor=#6c8ebf;overflow=hidden;fillColor=none;top=0;left=0;bottom=0;right=0;pointerEvents=1;strokeWidth=2;" vertex="1" parent="vJmMyQdDrBQl8oO5ruZa-120">
          <mxGeometry width="36" height="18" as="geometry">
            <mxRectangle width="36" height="18" as="alternateBounds" />
          </mxGeometry>
        </mxCell>
        <mxCell id="vJmMyQdDrBQl8oO5ruZa-122" value="V" style="shape=partialRectangle;html=1;whiteSpace=wrap;connectable=0;strokeColor=#6c8ebf;overflow=hidden;fillColor=none;top=0;left=0;bottom=0;right=0;pointerEvents=1;strokeWidth=2;" vertex="1" parent="vJmMyQdDrBQl8oO5ruZa-120">
          <mxGeometry x="36" width="36" height="18" as="geometry">
            <mxRectangle width="36" height="18" as="alternateBounds" />
          </mxGeometry>
        </mxCell>
        <mxCell id="vJmMyQdDrBQl8oO5ruZa-123" value="W" style="shape=partialRectangle;html=1;whiteSpace=wrap;connectable=0;strokeColor=#6c8ebf;overflow=hidden;fillColor=none;top=0;left=0;bottom=0;right=0;pointerEvents=1;strokeWidth=2;" vertex="1" parent="vJmMyQdDrBQl8oO5ruZa-120">
          <mxGeometry x="72" width="36" height="18" as="geometry">
            <mxRectangle width="36" height="18" as="alternateBounds" />
          </mxGeometry>
        </mxCell>
        <mxCell id="vJmMyQdDrBQl8oO5ruZa-124" value="X" style="shape=partialRectangle;html=1;whiteSpace=wrap;connectable=0;strokeColor=#6c8ebf;overflow=hidden;fillColor=none;top=0;left=0;bottom=0;right=0;pointerEvents=1;strokeWidth=2;" vertex="1" parent="vJmMyQdDrBQl8oO5ruZa-120">
          <mxGeometry x="108" width="36" height="18" as="geometry">
            <mxRectangle width="36" height="18" as="alternateBounds" />
          </mxGeometry>
        </mxCell>
        <mxCell id="vJmMyQdDrBQl8oO5ruZa-125" value="Z" style="shape=partialRectangle;html=1;whiteSpace=wrap;connectable=0;strokeColor=#6c8ebf;overflow=hidden;fillColor=none;top=0;left=0;bottom=0;right=0;pointerEvents=1;strokeWidth=2;" vertex="1" parent="vJmMyQdDrBQl8oO5ruZa-120">
          <mxGeometry x="144" width="36" height="18" as="geometry">
            <mxRectangle width="36" height="18" as="alternateBounds" />
          </mxGeometry>
        </mxCell>
        <mxCell id="vJmMyQdDrBQl8oO5ruZa-126" value="" style="shape=table;startSize=0;container=1;collapsible=0;childLayout=tableLayout;fillColor=#dae8fc;strokeWidth=2;strokeColor=#6c8ebf;" vertex="1" parent="1">
          <mxGeometry x="240" y="270" width="180" height="90" as="geometry" />
        </mxCell>
        <mxCell id="vJmMyQdDrBQl8oO5ruZa-127" value="" style="shape=tableRow;horizontal=0;startSize=0;swimlaneHead=0;swimlaneBody=0;strokeColor=#6c8ebf;top=0;left=0;bottom=0;right=0;collapsible=0;dropTarget=0;fillColor=none;points=[[0,0.5],[1,0.5]];portConstraint=eastwest;strokeWidth=2;" vertex="1" parent="vJmMyQdDrBQl8oO5ruZa-126">
          <mxGeometry width="180" height="18" as="geometry" />
        </mxCell>
        <mxCell id="vJmMyQdDrBQl8oO5ruZa-128" value="M" style="shape=partialRectangle;html=1;whiteSpace=wrap;connectable=0;strokeColor=#6c8ebf;overflow=hidden;fillColor=none;top=0;left=0;bottom=0;right=0;pointerEvents=1;shadow=0;strokeWidth=2;" vertex="1" parent="vJmMyQdDrBQl8oO5ruZa-127">
          <mxGeometry width="36" height="18" as="geometry">
            <mxRectangle width="36" height="18" as="alternateBounds" />
          </mxGeometry>
        </mxCell>
        <mxCell id="vJmMyQdDrBQl8oO5ruZa-129" value="O" style="shape=partialRectangle;html=1;whiteSpace=wrap;connectable=0;strokeColor=#6c8ebf;overflow=hidden;fillColor=none;top=0;left=0;bottom=0;right=0;pointerEvents=1;strokeWidth=2;" vertex="1" parent="vJmMyQdDrBQl8oO5ruZa-127">
          <mxGeometry x="36" width="36" height="18" as="geometry">
            <mxRectangle width="36" height="18" as="alternateBounds" />
          </mxGeometry>
        </mxCell>
        <mxCell id="vJmMyQdDrBQl8oO5ruZa-130" value="N" style="shape=partialRectangle;html=1;whiteSpace=wrap;connectable=0;strokeColor=#6F0000;overflow=hidden;fillColor=#a20025;top=0;left=0;bottom=0;right=0;pointerEvents=1;strokeWidth=2;fontColor=#ffffff;" vertex="1" parent="vJmMyQdDrBQl8oO5ruZa-127">
          <mxGeometry x="72" width="36" height="18" as="geometry">
            <mxRectangle width="36" height="18" as="alternateBounds" />
          </mxGeometry>
        </mxCell>
        <mxCell id="vJmMyQdDrBQl8oO5ruZa-131" value="A" style="shape=partialRectangle;html=1;whiteSpace=wrap;connectable=0;strokeColor=#6c8ebf;overflow=hidden;fillColor=none;top=0;left=0;bottom=0;right=0;pointerEvents=1;strokeWidth=2;" vertex="1" parent="vJmMyQdDrBQl8oO5ruZa-127">
          <mxGeometry x="108" width="36" height="18" as="geometry">
            <mxRectangle width="36" height="18" as="alternateBounds" />
          </mxGeometry>
        </mxCell>
        <mxCell id="vJmMyQdDrBQl8oO5ruZa-132" value="R" style="shape=partialRectangle;html=1;whiteSpace=wrap;connectable=0;strokeColor=#006EAF;overflow=hidden;fillColor=#1ba1e2;top=0;left=0;bottom=0;right=0;pointerEvents=1;strokeWidth=2;fontColor=#ffffff;" vertex="1" parent="vJmMyQdDrBQl8oO5ruZa-127">
          <mxGeometry x="144" width="36" height="18" as="geometry">
            <mxRectangle width="36" height="18" as="alternateBounds" />
          </mxGeometry>
        </mxCell>
        <mxCell id="vJmMyQdDrBQl8oO5ruZa-133" value="" style="shape=tableRow;horizontal=0;startSize=0;swimlaneHead=0;swimlaneBody=0;strokeColor=#6c8ebf;top=0;left=0;bottom=0;right=0;collapsible=0;dropTarget=0;fillColor=none;points=[[0,0.5],[1,0.5]];portConstraint=eastwest;strokeWidth=2;" vertex="1" parent="vJmMyQdDrBQl8oO5ruZa-126">
          <mxGeometry y="18" width="180" height="18" as="geometry" />
        </mxCell>
        <mxCell id="vJmMyQdDrBQl8oO5ruZa-134" value="C" style="shape=partialRectangle;html=1;whiteSpace=wrap;connectable=0;strokeColor=#6c8ebf;overflow=hidden;fillColor=none;top=0;left=0;bottom=0;right=0;pointerEvents=1;strokeWidth=2;" vertex="1" parent="vJmMyQdDrBQl8oO5ruZa-133">
          <mxGeometry width="36" height="18" as="geometry">
            <mxRectangle width="36" height="18" as="alternateBounds" />
          </mxGeometry>
        </mxCell>
        <mxCell id="vJmMyQdDrBQl8oO5ruZa-135" value="H" style="shape=partialRectangle;html=1;whiteSpace=wrap;connectable=0;strokeColor=#6c8ebf;overflow=hidden;fillColor=none;top=0;left=0;bottom=0;right=0;pointerEvents=1;strokeWidth=2;" vertex="1" parent="vJmMyQdDrBQl8oO5ruZa-133">
          <mxGeometry x="36" width="36" height="18" as="geometry">
            <mxRectangle width="36" height="18" as="alternateBounds" />
          </mxGeometry>
        </mxCell>
        <mxCell id="vJmMyQdDrBQl8oO5ruZa-136" value="Y" style="shape=partialRectangle;html=1;whiteSpace=wrap;connectable=0;strokeColor=#6c8ebf;overflow=hidden;fillColor=none;top=0;left=0;bottom=0;right=0;pointerEvents=1;strokeWidth=2;" vertex="1" parent="vJmMyQdDrBQl8oO5ruZa-133">
          <mxGeometry x="72" width="36" height="18" as="geometry">
            <mxRectangle width="36" height="18" as="alternateBounds" />
          </mxGeometry>
        </mxCell>
        <mxCell id="vJmMyQdDrBQl8oO5ruZa-137" value="B" style="shape=partialRectangle;html=1;whiteSpace=wrap;connectable=0;strokeColor=#6c8ebf;overflow=hidden;fillColor=none;top=0;left=0;bottom=0;right=0;pointerEvents=1;strokeWidth=2;" vertex="1" parent="vJmMyQdDrBQl8oO5ruZa-133">
          <mxGeometry x="108" width="36" height="18" as="geometry">
            <mxRectangle width="36" height="18" as="alternateBounds" />
          </mxGeometry>
        </mxCell>
        <mxCell id="vJmMyQdDrBQl8oO5ruZa-138" value="D" style="shape=partialRectangle;html=1;whiteSpace=wrap;connectable=0;strokeColor=#6c8ebf;overflow=hidden;fillColor=none;top=0;left=0;bottom=0;right=0;pointerEvents=1;strokeWidth=2;" vertex="1" parent="vJmMyQdDrBQl8oO5ruZa-133">
          <mxGeometry x="144" width="36" height="18" as="geometry">
            <mxRectangle width="36" height="18" as="alternateBounds" />
          </mxGeometry>
        </mxCell>
        <mxCell id="vJmMyQdDrBQl8oO5ruZa-139" value="" style="shape=tableRow;horizontal=0;startSize=0;swimlaneHead=0;swimlaneBody=0;strokeColor=#6c8ebf;top=0;left=0;bottom=0;right=0;collapsible=0;dropTarget=0;fillColor=none;points=[[0,0.5],[1,0.5]];portConstraint=eastwest;strokeWidth=2;" vertex="1" parent="vJmMyQdDrBQl8oO5ruZa-126">
          <mxGeometry y="36" width="180" height="18" as="geometry" />
        </mxCell>
        <mxCell id="vJmMyQdDrBQl8oO5ruZa-140" value="E" style="shape=partialRectangle;html=1;whiteSpace=wrap;connectable=0;strokeColor=#6c8ebf;overflow=hidden;fillColor=none;top=0;left=0;bottom=0;right=0;pointerEvents=1;strokeWidth=2;" vertex="1" parent="vJmMyQdDrBQl8oO5ruZa-139">
          <mxGeometry width="36" height="18" as="geometry">
            <mxRectangle width="36" height="18" as="alternateBounds" />
          </mxGeometry>
        </mxCell>
        <mxCell id="vJmMyQdDrBQl8oO5ruZa-141" value="F" style="shape=partialRectangle;html=1;whiteSpace=wrap;connectable=0;strokeColor=#6c8ebf;overflow=hidden;fillColor=none;top=0;left=0;bottom=0;right=0;pointerEvents=1;strokeWidth=2;" vertex="1" parent="vJmMyQdDrBQl8oO5ruZa-139">
          <mxGeometry x="36" width="36" height="18" as="geometry">
            <mxRectangle width="36" height="18" as="alternateBounds" />
          </mxGeometry>
        </mxCell>
        <mxCell id="vJmMyQdDrBQl8oO5ruZa-142" value="G" style="shape=partialRectangle;html=1;whiteSpace=wrap;connectable=0;strokeColor=#6c8ebf;overflow=hidden;fillColor=none;top=0;left=0;bottom=0;right=0;pointerEvents=1;strokeWidth=2;" vertex="1" parent="vJmMyQdDrBQl8oO5ruZa-139">
          <mxGeometry x="72" width="36" height="18" as="geometry">
            <mxRectangle width="36" height="18" as="alternateBounds" />
          </mxGeometry>
        </mxCell>
        <mxCell id="vJmMyQdDrBQl8oO5ruZa-143" value="I" style="shape=partialRectangle;html=1;whiteSpace=wrap;connectable=0;strokeColor=#6c8ebf;overflow=hidden;fillColor=none;top=0;left=0;bottom=0;right=0;pointerEvents=1;strokeWidth=2;" vertex="1" parent="vJmMyQdDrBQl8oO5ruZa-139">
          <mxGeometry x="108" width="36" height="18" as="geometry">
            <mxRectangle width="36" height="18" as="alternateBounds" />
          </mxGeometry>
        </mxCell>
        <mxCell id="vJmMyQdDrBQl8oO5ruZa-144" value="K" style="shape=partialRectangle;html=1;whiteSpace=wrap;connectable=0;strokeColor=#6c8ebf;overflow=hidden;fillColor=none;top=0;left=0;bottom=0;right=0;pointerEvents=1;strokeWidth=2;" vertex="1" parent="vJmMyQdDrBQl8oO5ruZa-139">
          <mxGeometry x="144" width="36" height="18" as="geometry">
            <mxRectangle width="36" height="18" as="alternateBounds" />
          </mxGeometry>
        </mxCell>
        <mxCell id="vJmMyQdDrBQl8oO5ruZa-145" value="" style="shape=tableRow;horizontal=0;startSize=0;swimlaneHead=0;swimlaneBody=0;strokeColor=#6c8ebf;top=0;left=0;bottom=0;right=0;collapsible=0;dropTarget=0;fillColor=none;points=[[0,0.5],[1,0.5]];portConstraint=eastwest;strokeWidth=2;" vertex="1" parent="vJmMyQdDrBQl8oO5ruZa-126">
          <mxGeometry y="54" width="180" height="18" as="geometry" />
        </mxCell>
        <mxCell id="vJmMyQdDrBQl8oO5ruZa-146" value="L" style="shape=partialRectangle;html=1;whiteSpace=wrap;connectable=0;strokeColor=#6c8ebf;overflow=hidden;fillColor=none;top=0;left=0;bottom=0;right=0;pointerEvents=1;strokeWidth=2;" vertex="1" parent="vJmMyQdDrBQl8oO5ruZa-145">
          <mxGeometry width="36" height="18" as="geometry">
            <mxRectangle width="36" height="18" as="alternateBounds" />
          </mxGeometry>
        </mxCell>
        <mxCell id="vJmMyQdDrBQl8oO5ruZa-147" value="P" style="shape=partialRectangle;html=1;whiteSpace=wrap;connectable=0;strokeColor=#6c8ebf;overflow=hidden;fillColor=none;top=0;left=0;bottom=0;right=0;pointerEvents=1;strokeWidth=2;" vertex="1" parent="vJmMyQdDrBQl8oO5ruZa-145">
          <mxGeometry x="36" width="36" height="18" as="geometry">
            <mxRectangle width="36" height="18" as="alternateBounds" />
          </mxGeometry>
        </mxCell>
        <mxCell id="vJmMyQdDrBQl8oO5ruZa-148" value="Q" style="shape=partialRectangle;html=1;whiteSpace=wrap;connectable=0;strokeColor=#006EAF;overflow=hidden;fillColor=#1ba1e2;top=0;left=0;bottom=0;right=0;pointerEvents=1;strokeWidth=2;fontColor=#ffffff;" vertex="1" parent="vJmMyQdDrBQl8oO5ruZa-145">
          <mxGeometry x="72" width="36" height="18" as="geometry">
            <mxRectangle width="36" height="18" as="alternateBounds" />
          </mxGeometry>
        </mxCell>
        <mxCell id="vJmMyQdDrBQl8oO5ruZa-149" value="S" style="shape=partialRectangle;html=1;whiteSpace=wrap;connectable=0;strokeColor=#6c8ebf;overflow=hidden;fillColor=none;top=0;left=0;bottom=0;right=0;pointerEvents=1;strokeWidth=2;" vertex="1" parent="vJmMyQdDrBQl8oO5ruZa-145">
          <mxGeometry x="108" width="36" height="18" as="geometry">
            <mxRectangle width="36" height="18" as="alternateBounds" />
          </mxGeometry>
        </mxCell>
        <mxCell id="vJmMyQdDrBQl8oO5ruZa-150" value="T" style="shape=partialRectangle;html=1;whiteSpace=wrap;connectable=0;strokeColor=#6F0000;overflow=hidden;fillColor=#a20025;top=0;left=0;bottom=0;right=0;pointerEvents=1;strokeWidth=2;fontColor=#ffffff;" vertex="1" parent="vJmMyQdDrBQl8oO5ruZa-145">
          <mxGeometry x="144" width="36" height="18" as="geometry">
            <mxRectangle width="36" height="18" as="alternateBounds" />
          </mxGeometry>
        </mxCell>
        <mxCell id="vJmMyQdDrBQl8oO5ruZa-151" value="" style="shape=tableRow;horizontal=0;startSize=0;swimlaneHead=0;swimlaneBody=0;strokeColor=#6c8ebf;top=0;left=0;bottom=0;right=0;collapsible=0;dropTarget=0;fillColor=none;points=[[0,0.5],[1,0.5]];portConstraint=eastwest;strokeWidth=2;" vertex="1" parent="vJmMyQdDrBQl8oO5ruZa-126">
          <mxGeometry y="72" width="180" height="18" as="geometry" />
        </mxCell>
        <mxCell id="vJmMyQdDrBQl8oO5ruZa-152" value="U" style="shape=partialRectangle;html=1;whiteSpace=wrap;connectable=0;strokeColor=#6c8ebf;overflow=hidden;fillColor=none;top=0;left=0;bottom=0;right=0;pointerEvents=1;strokeWidth=2;" vertex="1" parent="vJmMyQdDrBQl8oO5ruZa-151">
          <mxGeometry width="36" height="18" as="geometry">
            <mxRectangle width="36" height="18" as="alternateBounds" />
          </mxGeometry>
        </mxCell>
        <mxCell id="vJmMyQdDrBQl8oO5ruZa-153" value="V" style="shape=partialRectangle;html=1;whiteSpace=wrap;connectable=0;strokeColor=#6c8ebf;overflow=hidden;fillColor=none;top=0;left=0;bottom=0;right=0;pointerEvents=1;strokeWidth=2;" vertex="1" parent="vJmMyQdDrBQl8oO5ruZa-151">
          <mxGeometry x="36" width="36" height="18" as="geometry">
            <mxRectangle width="36" height="18" as="alternateBounds" />
          </mxGeometry>
        </mxCell>
        <mxCell id="vJmMyQdDrBQl8oO5ruZa-154" value="W" style="shape=partialRectangle;html=1;whiteSpace=wrap;connectable=0;strokeColor=#6c8ebf;overflow=hidden;fillColor=none;top=0;left=0;bottom=0;right=0;pointerEvents=1;strokeWidth=2;" vertex="1" parent="vJmMyQdDrBQl8oO5ruZa-151">
          <mxGeometry x="72" width="36" height="18" as="geometry">
            <mxRectangle width="36" height="18" as="alternateBounds" />
          </mxGeometry>
        </mxCell>
        <mxCell id="vJmMyQdDrBQl8oO5ruZa-155" value="X" style="shape=partialRectangle;html=1;whiteSpace=wrap;connectable=0;strokeColor=#6c8ebf;overflow=hidden;fillColor=none;top=0;left=0;bottom=0;right=0;pointerEvents=1;strokeWidth=2;" vertex="1" parent="vJmMyQdDrBQl8oO5ruZa-151">
          <mxGeometry x="108" width="36" height="18" as="geometry">
            <mxRectangle width="36" height="18" as="alternateBounds" />
          </mxGeometry>
        </mxCell>
        <mxCell id="vJmMyQdDrBQl8oO5ruZa-156" value="Z" style="shape=partialRectangle;html=1;whiteSpace=wrap;connectable=0;strokeColor=#6c8ebf;overflow=hidden;fillColor=none;top=0;left=0;bottom=0;right=0;pointerEvents=1;strokeWidth=2;" vertex="1" parent="vJmMyQdDrBQl8oO5ruZa-151">
          <mxGeometry x="144" width="36" height="18" as="geometry">
            <mxRectangle width="36" height="18" as="alternateBounds" />
          </mxGeometry>
        </mxCell>
        <mxCell id="vJmMyQdDrBQl8oO5ruZa-157" value="" style="shape=table;startSize=0;container=1;collapsible=0;childLayout=tableLayout;fillColor=#dae8fc;strokeWidth=2;strokeColor=#6c8ebf;" vertex="1" parent="1">
          <mxGeometry x="450" y="270" width="180" height="90" as="geometry" />
        </mxCell>
        <mxCell id="vJmMyQdDrBQl8oO5ruZa-158" value="" style="shape=tableRow;horizontal=0;startSize=0;swimlaneHead=0;swimlaneBody=0;strokeColor=#6c8ebf;top=0;left=0;bottom=0;right=0;collapsible=0;dropTarget=0;fillColor=none;points=[[0,0.5],[1,0.5]];portConstraint=eastwest;strokeWidth=2;" vertex="1" parent="vJmMyQdDrBQl8oO5ruZa-157">
          <mxGeometry width="180" height="18" as="geometry" />
        </mxCell>
        <mxCell id="vJmMyQdDrBQl8oO5ruZa-159" value="M" style="shape=partialRectangle;html=1;whiteSpace=wrap;connectable=0;strokeColor=#6c8ebf;overflow=hidden;fillColor=none;top=0;left=0;bottom=0;right=0;pointerEvents=1;shadow=0;strokeWidth=2;" vertex="1" parent="vJmMyQdDrBQl8oO5ruZa-158">
          <mxGeometry width="36" height="18" as="geometry">
            <mxRectangle width="36" height="18" as="alternateBounds" />
          </mxGeometry>
        </mxCell>
        <mxCell id="vJmMyQdDrBQl8oO5ruZa-160" value="O" style="shape=partialRectangle;html=1;whiteSpace=wrap;connectable=0;strokeColor=#6c8ebf;overflow=hidden;fillColor=none;top=0;left=0;bottom=0;right=0;pointerEvents=1;strokeWidth=2;" vertex="1" parent="vJmMyQdDrBQl8oO5ruZa-158">
          <mxGeometry x="36" width="36" height="18" as="geometry">
            <mxRectangle width="36" height="18" as="alternateBounds" />
          </mxGeometry>
        </mxCell>
        <mxCell id="vJmMyQdDrBQl8oO5ruZa-161" value="N" style="shape=partialRectangle;html=1;whiteSpace=wrap;connectable=0;strokeColor=#6c8ebf;overflow=hidden;fillColor=none;top=0;left=0;bottom=0;right=0;pointerEvents=1;strokeWidth=2;" vertex="1" parent="vJmMyQdDrBQl8oO5ruZa-158">
          <mxGeometry x="72" width="36" height="18" as="geometry">
            <mxRectangle width="36" height="18" as="alternateBounds" />
          </mxGeometry>
        </mxCell>
        <mxCell id="vJmMyQdDrBQl8oO5ruZa-162" value="A" style="shape=partialRectangle;html=1;whiteSpace=wrap;connectable=0;strokeColor=#6c8ebf;overflow=hidden;fillColor=none;top=0;left=0;bottom=0;right=0;pointerEvents=1;strokeWidth=2;" vertex="1" parent="vJmMyQdDrBQl8oO5ruZa-158">
          <mxGeometry x="108" width="36" height="18" as="geometry">
            <mxRectangle width="36" height="18" as="alternateBounds" />
          </mxGeometry>
        </mxCell>
        <mxCell id="vJmMyQdDrBQl8oO5ruZa-163" value="R" style="shape=partialRectangle;html=1;whiteSpace=wrap;connectable=0;strokeColor=#6c8ebf;overflow=hidden;fillColor=none;top=0;left=0;bottom=0;right=0;pointerEvents=1;strokeWidth=2;" vertex="1" parent="vJmMyQdDrBQl8oO5ruZa-158">
          <mxGeometry x="144" width="36" height="18" as="geometry">
            <mxRectangle width="36" height="18" as="alternateBounds" />
          </mxGeometry>
        </mxCell>
        <mxCell id="vJmMyQdDrBQl8oO5ruZa-164" value="" style="shape=tableRow;horizontal=0;startSize=0;swimlaneHead=0;swimlaneBody=0;strokeColor=#6c8ebf;top=0;left=0;bottom=0;right=0;collapsible=0;dropTarget=0;fillColor=none;points=[[0,0.5],[1,0.5]];portConstraint=eastwest;strokeWidth=2;" vertex="1" parent="vJmMyQdDrBQl8oO5ruZa-157">
          <mxGeometry y="18" width="180" height="18" as="geometry" />
        </mxCell>
        <mxCell id="vJmMyQdDrBQl8oO5ruZa-165" value="C" style="shape=partialRectangle;html=1;whiteSpace=wrap;connectable=0;strokeColor=#6c8ebf;overflow=hidden;fillColor=none;top=0;left=0;bottom=0;right=0;pointerEvents=1;strokeWidth=2;" vertex="1" parent="vJmMyQdDrBQl8oO5ruZa-164">
          <mxGeometry width="36" height="18" as="geometry">
            <mxRectangle width="36" height="18" as="alternateBounds" />
          </mxGeometry>
        </mxCell>
        <mxCell id="vJmMyQdDrBQl8oO5ruZa-166" value="H" style="shape=partialRectangle;html=1;whiteSpace=wrap;connectable=0;strokeColor=#6c8ebf;overflow=hidden;fillColor=none;top=0;left=0;bottom=0;right=0;pointerEvents=1;strokeWidth=2;" vertex="1" parent="vJmMyQdDrBQl8oO5ruZa-164">
          <mxGeometry x="36" width="36" height="18" as="geometry">
            <mxRectangle width="36" height="18" as="alternateBounds" />
          </mxGeometry>
        </mxCell>
        <mxCell id="vJmMyQdDrBQl8oO5ruZa-167" value="Y" style="shape=partialRectangle;html=1;whiteSpace=wrap;connectable=0;strokeColor=#6c8ebf;overflow=hidden;fillColor=none;top=0;left=0;bottom=0;right=0;pointerEvents=1;strokeWidth=2;" vertex="1" parent="vJmMyQdDrBQl8oO5ruZa-164">
          <mxGeometry x="72" width="36" height="18" as="geometry">
            <mxRectangle width="36" height="18" as="alternateBounds" />
          </mxGeometry>
        </mxCell>
        <mxCell id="vJmMyQdDrBQl8oO5ruZa-168" value="B" style="shape=partialRectangle;html=1;whiteSpace=wrap;connectable=0;strokeColor=#6c8ebf;overflow=hidden;fillColor=none;top=0;left=0;bottom=0;right=0;pointerEvents=1;strokeWidth=2;" vertex="1" parent="vJmMyQdDrBQl8oO5ruZa-164">
          <mxGeometry x="108" width="36" height="18" as="geometry">
            <mxRectangle width="36" height="18" as="alternateBounds" />
          </mxGeometry>
        </mxCell>
        <mxCell id="vJmMyQdDrBQl8oO5ruZa-169" value="D" style="shape=partialRectangle;html=1;whiteSpace=wrap;connectable=0;strokeColor=#6c8ebf;overflow=hidden;fillColor=none;top=0;left=0;bottom=0;right=0;pointerEvents=1;strokeWidth=2;" vertex="1" parent="vJmMyQdDrBQl8oO5ruZa-164">
          <mxGeometry x="144" width="36" height="18" as="geometry">
            <mxRectangle width="36" height="18" as="alternateBounds" />
          </mxGeometry>
        </mxCell>
        <mxCell id="vJmMyQdDrBQl8oO5ruZa-170" value="" style="shape=tableRow;horizontal=0;startSize=0;swimlaneHead=0;swimlaneBody=0;strokeColor=#6c8ebf;top=0;left=0;bottom=0;right=0;collapsible=0;dropTarget=0;fillColor=none;points=[[0,0.5],[1,0.5]];portConstraint=eastwest;strokeWidth=2;" vertex="1" parent="vJmMyQdDrBQl8oO5ruZa-157">
          <mxGeometry y="36" width="180" height="18" as="geometry" />
        </mxCell>
        <mxCell id="vJmMyQdDrBQl8oO5ruZa-171" value="E" style="shape=partialRectangle;html=1;whiteSpace=wrap;connectable=0;strokeColor=#6c8ebf;overflow=hidden;fillColor=none;top=0;left=0;bottom=0;right=0;pointerEvents=1;strokeWidth=2;" vertex="1" parent="vJmMyQdDrBQl8oO5ruZa-170">
          <mxGeometry width="36" height="18" as="geometry">
            <mxRectangle width="36" height="18" as="alternateBounds" />
          </mxGeometry>
        </mxCell>
        <mxCell id="vJmMyQdDrBQl8oO5ruZa-172" value="F" style="shape=partialRectangle;html=1;whiteSpace=wrap;connectable=0;strokeColor=#6c8ebf;overflow=hidden;fillColor=none;top=0;left=0;bottom=0;right=0;pointerEvents=1;strokeWidth=2;" vertex="1" parent="vJmMyQdDrBQl8oO5ruZa-170">
          <mxGeometry x="36" width="36" height="18" as="geometry">
            <mxRectangle width="36" height="18" as="alternateBounds" />
          </mxGeometry>
        </mxCell>
        <mxCell id="vJmMyQdDrBQl8oO5ruZa-173" value="G" style="shape=partialRectangle;html=1;whiteSpace=wrap;connectable=0;strokeColor=#6c8ebf;overflow=hidden;fillColor=none;top=0;left=0;bottom=0;right=0;pointerEvents=1;strokeWidth=2;" vertex="1" parent="vJmMyQdDrBQl8oO5ruZa-170">
          <mxGeometry x="72" width="36" height="18" as="geometry">
            <mxRectangle width="36" height="18" as="alternateBounds" />
          </mxGeometry>
        </mxCell>
        <mxCell id="vJmMyQdDrBQl8oO5ruZa-174" value="I" style="shape=partialRectangle;html=1;whiteSpace=wrap;connectable=0;strokeColor=#6c8ebf;overflow=hidden;fillColor=none;top=0;left=0;bottom=0;right=0;pointerEvents=1;strokeWidth=2;" vertex="1" parent="vJmMyQdDrBQl8oO5ruZa-170">
          <mxGeometry x="108" width="36" height="18" as="geometry">
            <mxRectangle width="36" height="18" as="alternateBounds" />
          </mxGeometry>
        </mxCell>
        <mxCell id="vJmMyQdDrBQl8oO5ruZa-175" value="K" style="shape=partialRectangle;html=1;whiteSpace=wrap;connectable=0;strokeColor=#6c8ebf;overflow=hidden;fillColor=none;top=0;left=0;bottom=0;right=0;pointerEvents=1;strokeWidth=2;" vertex="1" parent="vJmMyQdDrBQl8oO5ruZa-170">
          <mxGeometry x="144" width="36" height="18" as="geometry">
            <mxRectangle width="36" height="18" as="alternateBounds" />
          </mxGeometry>
        </mxCell>
        <mxCell id="vJmMyQdDrBQl8oO5ruZa-176" value="" style="shape=tableRow;horizontal=0;startSize=0;swimlaneHead=0;swimlaneBody=0;strokeColor=#6c8ebf;top=0;left=0;bottom=0;right=0;collapsible=0;dropTarget=0;fillColor=none;points=[[0,0.5],[1,0.5]];portConstraint=eastwest;strokeWidth=2;" vertex="1" parent="vJmMyQdDrBQl8oO5ruZa-157">
          <mxGeometry y="54" width="180" height="18" as="geometry" />
        </mxCell>
        <mxCell id="vJmMyQdDrBQl8oO5ruZa-177" value="L" style="shape=partialRectangle;html=1;whiteSpace=wrap;connectable=0;strokeColor=#6c8ebf;overflow=hidden;fillColor=none;top=0;left=0;bottom=0;right=0;pointerEvents=1;strokeWidth=2;" vertex="1" parent="vJmMyQdDrBQl8oO5ruZa-176">
          <mxGeometry width="36" height="18" as="geometry">
            <mxRectangle width="36" height="18" as="alternateBounds" />
          </mxGeometry>
        </mxCell>
        <mxCell id="vJmMyQdDrBQl8oO5ruZa-178" value="P" style="shape=partialRectangle;html=1;whiteSpace=wrap;connectable=0;strokeColor=#6c8ebf;overflow=hidden;fillColor=none;top=0;left=0;bottom=0;right=0;pointerEvents=1;strokeWidth=2;" vertex="1" parent="vJmMyQdDrBQl8oO5ruZa-176">
          <mxGeometry x="36" width="36" height="18" as="geometry">
            <mxRectangle width="36" height="18" as="alternateBounds" />
          </mxGeometry>
        </mxCell>
        <mxCell id="vJmMyQdDrBQl8oO5ruZa-179" value="Q" style="shape=partialRectangle;html=1;whiteSpace=wrap;connectable=0;strokeColor=#6c8ebf;overflow=hidden;fillColor=none;top=0;left=0;bottom=0;right=0;pointerEvents=1;strokeWidth=2;" vertex="1" parent="vJmMyQdDrBQl8oO5ruZa-176">
          <mxGeometry x="72" width="36" height="18" as="geometry">
            <mxRectangle width="36" height="18" as="alternateBounds" />
          </mxGeometry>
        </mxCell>
        <mxCell id="vJmMyQdDrBQl8oO5ruZa-180" value="S" style="shape=partialRectangle;html=1;whiteSpace=wrap;connectable=0;strokeColor=#6F0000;overflow=hidden;fillColor=#a20025;top=0;left=0;bottom=0;right=0;pointerEvents=1;strokeWidth=2;fontColor=#ffffff;" vertex="1" parent="vJmMyQdDrBQl8oO5ruZa-176">
          <mxGeometry x="108" width="36" height="18" as="geometry">
            <mxRectangle width="36" height="18" as="alternateBounds" />
          </mxGeometry>
        </mxCell>
        <mxCell id="vJmMyQdDrBQl8oO5ruZa-181" value="T" style="shape=partialRectangle;html=1;whiteSpace=wrap;connectable=0;strokeColor=#006EAF;overflow=hidden;fillColor=#1ba1e2;top=0;left=0;bottom=0;right=0;pointerEvents=1;strokeWidth=2;fontColor=#ffffff;" vertex="1" parent="vJmMyQdDrBQl8oO5ruZa-176">
          <mxGeometry x="144" width="36" height="18" as="geometry">
            <mxRectangle width="36" height="18" as="alternateBounds" />
          </mxGeometry>
        </mxCell>
        <mxCell id="vJmMyQdDrBQl8oO5ruZa-182" value="" style="shape=tableRow;horizontal=0;startSize=0;swimlaneHead=0;swimlaneBody=0;strokeColor=#6c8ebf;top=0;left=0;bottom=0;right=0;collapsible=0;dropTarget=0;fillColor=none;points=[[0,0.5],[1,0.5]];portConstraint=eastwest;strokeWidth=2;" vertex="1" parent="vJmMyQdDrBQl8oO5ruZa-157">
          <mxGeometry y="72" width="180" height="18" as="geometry" />
        </mxCell>
        <mxCell id="vJmMyQdDrBQl8oO5ruZa-183" value="U" style="shape=partialRectangle;html=1;whiteSpace=wrap;connectable=0;strokeColor=#6c8ebf;overflow=hidden;fillColor=none;top=0;left=0;bottom=0;right=0;pointerEvents=1;strokeWidth=2;" vertex="1" parent="vJmMyQdDrBQl8oO5ruZa-182">
          <mxGeometry width="36" height="18" as="geometry">
            <mxRectangle width="36" height="18" as="alternateBounds" />
          </mxGeometry>
        </mxCell>
        <mxCell id="vJmMyQdDrBQl8oO5ruZa-184" value="V" style="shape=partialRectangle;html=1;whiteSpace=wrap;connectable=0;strokeColor=#6c8ebf;overflow=hidden;fillColor=none;top=0;left=0;bottom=0;right=0;pointerEvents=1;strokeWidth=2;" vertex="1" parent="vJmMyQdDrBQl8oO5ruZa-182">
          <mxGeometry x="36" width="36" height="18" as="geometry">
            <mxRectangle width="36" height="18" as="alternateBounds" />
          </mxGeometry>
        </mxCell>
        <mxCell id="vJmMyQdDrBQl8oO5ruZa-185" value="W" style="shape=partialRectangle;html=1;whiteSpace=wrap;connectable=0;strokeColor=#6c8ebf;overflow=hidden;fillColor=none;top=0;left=0;bottom=0;right=0;pointerEvents=1;strokeWidth=2;" vertex="1" parent="vJmMyQdDrBQl8oO5ruZa-182">
          <mxGeometry x="72" width="36" height="18" as="geometry">
            <mxRectangle width="36" height="18" as="alternateBounds" />
          </mxGeometry>
        </mxCell>
        <mxCell id="vJmMyQdDrBQl8oO5ruZa-186" value="X" style="shape=partialRectangle;html=1;whiteSpace=wrap;connectable=0;strokeColor=#006EAF;overflow=hidden;fillColor=#1ba1e2;top=0;left=0;bottom=0;right=0;pointerEvents=1;strokeWidth=2;fontColor=#ffffff;" vertex="1" parent="vJmMyQdDrBQl8oO5ruZa-182">
          <mxGeometry x="108" width="36" height="18" as="geometry">
            <mxRectangle width="36" height="18" as="alternateBounds" />
          </mxGeometry>
        </mxCell>
        <mxCell id="vJmMyQdDrBQl8oO5ruZa-187" value="Z" style="shape=partialRectangle;html=1;whiteSpace=wrap;connectable=0;strokeColor=#6F0000;overflow=hidden;fillColor=#a20025;top=0;left=0;bottom=0;right=0;pointerEvents=1;strokeWidth=2;fontColor=#ffffff;" vertex="1" parent="vJmMyQdDrBQl8oO5ruZa-182">
          <mxGeometry x="144" width="36" height="18" as="geometry">
            <mxRectangle width="36" height="18" as="alternateBounds" />
          </mxGeometry>
        </mxCell>
        <mxCell id="vJmMyQdDrBQl8oO5ruZa-188" value="GA = IN" style="text;html=1;align=center;verticalAlign=middle;whiteSpace=wrap;rounded=0;" vertex="1" parent="1">
          <mxGeometry x="90" y="120" width="60" height="20" as="geometry" />
        </mxCell>
        <mxCell id="vJmMyQdDrBQl8oO5ruZa-189" value="TL = ST" style="text;html=1;align=center;verticalAlign=middle;whiteSpace=wrap;rounded=0;" vertex="1" parent="1">
          <mxGeometry x="300" y="120" width="60" height="20" as="geometry" />
        </mxCell>
        <mxCell id="vJmMyQdDrBQl8oO5ruZa-190" value="MZ = RU" style="text;html=1;align=center;verticalAlign=middle;whiteSpace=wrap;rounded=0;" vertex="1" parent="1">
          <mxGeometry x="510" y="120" width="60" height="20" as="geometry" />
        </mxCell>
        <mxCell id="vJmMyQdDrBQl8oO5ruZa-191" value="CL = ME" style="text;html=1;align=center;verticalAlign=middle;whiteSpace=wrap;rounded=0;" vertex="1" parent="1">
          <mxGeometry x="90" y="380" width="60" height="20" as="geometry" />
        </mxCell>
        <mxCell id="vJmMyQdDrBQl8oO5ruZa-192" value="RQ = NT" style="text;html=1;align=center;verticalAlign=middle;whiteSpace=wrap;rounded=0;" vertex="1" parent="1">
          <mxGeometry x="300" y="380" width="60" height="20" as="geometry" />
        </mxCell>
        <mxCell id="vJmMyQdDrBQl8oO5ruZa-193" value="TX = SZ" style="text;html=1;align=center;verticalAlign=middle;whiteSpace=wrap;rounded=0;" vertex="1" parent="1">
          <mxGeometry x="510" y="380" width="60" height="20" as="geometry" />
        </mxCell>
      </root>
    </mxGraphModel>
  </diagram>
</mxfile>
